<svg id="Camada_1" data-name="Camada 1" xmlns="http://www.w3.org/2000/svg" viewBox="0 0 127.7 80.8"><defs><style>.cls-1{fill:#2d2d2d}.cls-2{fill:#fff}.cls-2,.cls-5{opacity:.2}.cls-12,.cls-2,.cls-5,.cls-6,.cls-7,.cls-8{isolation:isolate}.cls-6{fill:#5d5d5d}.cls-6,.cls-7{opacity:.8}.cls-7,.cls-8,.cls-9{fill:#cf0}.cls-8{opacity:.7}.cls-10{fill:#333}.cls-11{fill:#424242}.cls-12,.cls-13{opacity:.27}</style><linearGradient id="Gradiente_sem_nome_5" x1="41.2" y1="-1391" x2="41.2" y2="-1378.6" gradientTransform="matrix(1 0 0 -1 0 -1379)" gradientUnits="userSpaceOnUse"><stop offset="0" stop-color="#333"/><stop offset="1" stop-color="#4d4d4d"/></linearGradient><linearGradient id="Gradiente_sem_nome_2" x1="41" y1="-1394.6" x2="41" y2="-1375.3" gradientTransform="matrix(1 0 0 -1 0 -1379)" gradientUnits="userSpaceOnUse"><stop offset="0" stop-color="#1e1e1e"/><stop offset="1" stop-color="#4d4d4d"/></linearGradient><radialGradient id="Gradiente_sem_nome_3" cx="19.2" cy="-1411.8" r="32.6" gradientTransform="matrix(1 0 0 -1 0 -1379)" gradientUnits="userSpaceOnUse"><stop offset=".2" stop-color="#4f4f4f"/><stop offset="1" stop-color="#1e1e1e"/></radialGradient><linearGradient id="Gradiente_sem_nome_4" x1="51.3" y1="-1445.1" x2="50.6" y2="-1447.6" gradientTransform="matrix(1 0 0 -1 0 -1379)" gradientUnits="userSpaceOnUse"><stop offset="0" stop-color="#fff"/><stop offset="1" stop-color="#d8d8d8"/></linearGradient></defs><path class="cls-1" d="M98.8 17.5a28.8 28.8 0 0 0-22.7 11 37 37 0 0 1 3 4 24.5 24.5 0 0 1 2.6-3.2 24 24 0 0 1 17.1-7 24.1 24.1 0 0 1 0 48.2 24 24 0 0 1-16.3-6.3 36.7 36.7 0 0 1-2 4.6 28.7 28.7 0 0 0 18.3 6.5 28.9 28.9 0 0 0 0-57.8z"/><path class="cls-1" d="M91.4 61.3a2.8 2.8 0 0 0 2.9-.2l17.6-12.5a2.8 2.8 0 0 0 0-4.5L94.2 31.6a2.8 2.8 0 0 0-2.8-.2 2.8 2.8 0 0 0-1.5 2.5v25a2.7 2.7 0 0 0 1.5 2.4z"/><ellipse class="cls-2" cx="37.7" cy="27.8" rx="3.5" ry="7.2" transform="rotate(-41.6 37.7 27.8)"/><path d="M74 51.6c-4 .3-8-7.2-9-17a36.7 36.7 0 0 1 .2-9.4 57 57 0 0 0-8.6-5.1 33 33 0 0 1 2.3-8.2c2.8-7.2 6.8-2.4 8.1 1.9A5.8 5.8 0 0 0 60.8 6c-4.7.5-7.6 12.5-7.6 12.5l-1-.4-2.6-1a23.3 23.3 0 0 0-9.9-12 27.1 27.1 0 0 0-25.5.6S38.2-.5 45.4 16a47.4 47.4 0 0 0-30.3.7A24.1 24.1 0 0 0 3.4 48c7.9 18.8 32.8 33.1 52.9 32.7 22-.5 32.7-19.8 23-39.3-.6 5.8-2.6 9.9-5.4 10.2zM31.2 21.2c4-4 14.5-.4 23.2 8.1s12.5 19 8.5 23-14.4.5-23.1-8-12.6-19-8.6-23z" style="isolation:isolate" opacity=".3"/><path d="M72.9 49.3c-4 .3-7.9-7.2-8.9-17a36.3 36.3 0 0 1 .2-9.3 56.3 56.3 0 0 0-8.6-5 32.4 32.4 0 0 1 2.3-8.2c2.8-7.2 6.8-2.5 8.1 1.8a5.8 5.8 0 0 0-6.2-7.7c-4.7.5-7.6 12.5-7.6 12.5l-1-.4-2.6-1a23.3 23.3 0 0 0-9.9-12 27.3 27.3 0 0 0-25.5.6s24-6.3 31.2 10.2a47.2 47.2 0 0 0-30.2.7A24 24 0 0 0 2.5 45.8c8 18.8 32.8 33 52.8 32.7 22-.5 32.7-19.8 23-39.3-.7 5.7-2.7 9.8-5.4 10zM30.3 19c4-4.1 14.4-.5 23.1 8S66 46 62 50s-14.3.5-23-8-12.6-19-8.5-23z" fill="url(#Gradiente_sem_nome_5)"/><ellipse class="cls-1" cx="52.1" cy="38.1" rx="4.5" ry="8.5" transform="rotate(-44.2 52.1 38.1)"/><path class="cls-5" d="M28.1 21.4c-3.7 4.4 1 14.4 10.3 22.2s20 10.6 23.7 6.2-1-14.4-10.3-22.2S31.8 17 28 21.4z"/><path class="cls-6" d="M30.2 19c-4 4.1-.2 14.4 8.5 23s19 12.1 23 8 .3-14.4-8.4-23-19-12.1-23-8z"/><path class="cls-7" d="M30.2 19c-4 4.1-.2 14.4 8.5 23s19 12.1 23 8 .3-14.4-8.4-23-19-12.1-23-8z"/><path class="cls-8" d="M33.3 21.3C29.6 25 33 34 40.8 41.7s17 10.8 20.6 7.2.2-12.8-7.6-20.4-17-10.9-20.5-7.2z"/><path class="cls-9" d="M40 26.9c-2.7 2.7-.3 9.4 5.4 15s12.5 8 15.1 5.2.2-9.3-5.5-15-12.4-8-15-5.2z"/><ellipse class="cls-1" cx="52.1" cy="38.1" rx="4.5" ry="8.5" transform="rotate(-44.2 52 38.1)"/><ellipse class="cls-10" cx="52.1" cy="38.1" rx="3.3" ry="6.2" transform="rotate(-44.2 52 38.1)"/><ellipse class="cls-11" cx="51.5" cy="37.5" rx="2" ry="3.8" transform="rotate(-44.2 51.5 37.4)"/><path class="cls-12" d="M57.4 72c-5.7.6-21-1.8-19.9-6.5.8-3.4 5.3-.7 11.1 1.6A64.7 64.7 0 0 0 60.2 70c4.9.9 3 1.6-2.8 2.1z"/><path d="M74.4 33.4a30.7 30.7 0 0 0-3.1-4l-2.5-2.6a39.6 39.6 0 0 0-4.8-4 18 18 0 0 0-1.3 8.7c1 9.7 5 17.2 9 16.9 2.6-.3 4.6-4.3 5.3-10a29 29 0 0 0-2.6-5z"/><path class="cls-9" d="M75.7 34.2a30.7 30.7 0 0 0-3.1-4l-2.5-2.6a65.1 65.1 0 0 0-5.9-4.9 40.7 40.7 0 0 0-.2 9.5c1 9.7 5 17.2 8.9 16.9 2.7-.3 4.7-4.3 5.3-10a34.3 34.3 0 0 0-2.5-4.9z"/><path class="cls-1" d="M73.6 43.6c1.7 0 2.8-3.2 2.5-7a19.5 19.5 0 0 0-.4-2.5 29.4 29.4 0 0 0-3-4h-.2c-1.7 0-2.8 3.2-2.5 7s2 6.6 3.6 6.5z"/><path class="cls-10" d="M73.5 40.9c1-.1 1.7-2 1.5-4.2a9 9 0 0 0-.7-3c-.5-1-1.8-1.4-2.5-.2a6 6 0 0 0-.6 3.4c.2 2.3 1.2 4 2.3 4z"/><path class="cls-11" d="M73.2 38.8c.7 0 1.1-1.2 1-2.6a6.1 6.1 0 0 0-.4-1.8c-.3-.7-1.2-1-1.6-.2a3.4 3.4 0 0 0-.3 2.1c.1 1.4.7 2.5 1.3 2.5z"/><path d="M58 71.1c-5.7.6-21-1.8-19.8-6.6.8-3.3 5.3-.6 11 1.7A64.7 64.7 0 0 0 61 69c4.9.8 3 1.6-2.8 2.1z" fill="#d8d8d8"/><path d="M73 49.5c-4 .3-8-7.3-9-17a37 37 0 0 1 .2-9.5 54 54 0 0 0-8.6-5.1 32 32 0 0 1 2.3-8.2c2.8-7.3 6.9-2.5 8.2 1.8a5.8 5.8 0 0 0-6.3-7.7c-4.7.5-7.6 12.6-7.6 12.6l-1-.4-2.7-1a23.5 23.5 0 0 0-9.8-12.1c-6-3.4-15.7-4.5-25.8.6 0 0 24.1-6.3 31.4 10.3a48 48 0 0 0-30.5.7A24.1 24.1 0 0 0 2 46c8 18.9 33 33.3 53.2 33 22.2-.5 33-20 23.2-39.6-.7 5.7-2.7 9.8-5.4 10zM30.1 19c4-4.2 14.5-.5 23.3 8.2s12.6 19 8.5 23.1-14.5.5-23.2-8.2S26 23.1 30 19z" fill="url(#Gradiente_sem_nome_2)"/><path d="M14.5 62.4A68.7 68.7 0 0 0 47 78a46.1 46.1 0 0 0 12.2.2 27.2 27.2 0 0 0 15.5-7.1 23.6 23.6 0 0 0 7-14.3 31.2 31.2 0 0 0-3.5-17.8 65.6 65.6 0 0 0-6-9.3c-2.4-2.8-4.7-4.5-8.2-7.1a54 54 0 0 0-12-6.7l-1-.4-2.6-.9-4.2-1.2-5.4-1.2-3.2-.5a46 46 0 0 0-17.8.9l-.7.2A23.6 23.6 0 0 0 1.7 27.2 24.7 24.7 0 0 0 2 45.8a35.9 35.9 0 0 0 2 4.1 51.5 51.5 0 0 0 10.5 12.5z" fill="url(#Gradiente_sem_nome_3)"/><ellipse class="cls-1" cx="52.1" cy="38.3" rx="4.5" ry="8.6" transform="rotate(-44.2 52.1 38.3)"/><path class="cls-5" d="M27.9 21.4c-3.7 4.5 1 14.5 10.4 22.4S58.4 54.5 62.2 50s-1-14.5-10.4-22.4-20.2-10.6-24-6.2z"/><path class="cls-6" d="M30 19c-4 4.2-.2 14.5 8.5 23.1s19.2 12.3 23.3 8.2.2-14.5-8.5-23.2S34 14.8 30 19z"/><path class="cls-7" d="M30 19c-4 4.2-.2 14.5 8.5 23.1s19.2 12.3 23.3 8.2.2-14.5-8.5-23.2S34 14.8 30 19z"/><path class="cls-8" d="M33 21.3c-3.6 3.7-.2 12.9 7.6 20.6s17.1 11 20.7 7.2.3-12.9-7.6-20.6-17-11-20.7-7.2z"/><path class="cls-9" d="M39.8 27c-2.7 2.6-.2 9.4 5.6 15s12.5 8 15.2 5.3.2-9.4-5.6-15-12.5-8-15.2-5.4z"/><ellipse class="cls-1" cx="52" cy="38.3" rx="4.5" ry="8.6" transform="rotate(-44.2 52 38.3)"/><ellipse class="cls-10" cx="52" cy="38.3" rx="3.3" ry="6.3" transform="rotate(-44.2 52 38.3)"/><ellipse class="cls-11" cx="51.4" cy="37.6" rx="2" ry="3.8" transform="rotate(-44.2 51.4 37.6)"/><path class="cls-12" d="M57.4 72.5c-5.8.5-21.1-1.9-20-6.7.8-3.4 5.3-.6 11.1 1.7a66.2 66.2 0 0 0 11.7 2.9c5 .9 3 1.5-2.8 2z"/><path d="M74.6 33.5a31.1 31.1 0 0 0-5.7-6.6 44.5 44.5 0 0 0-4.9-4 18.2 18.2 0 0 0-1.3 8.6c1 9.8 5 17.4 9 17 2.8-.3 4.8-4.3 5.4-10a37.3 37.3 0 0 0-2.5-5z"/><path d="M58 71.5c-5.7.6-21-1.8-20-6.7.8-3.3 5.4-.6 11.2 1.7a66.2 66.2 0 0 0 11.7 3c5 .8 3 1.5-2.8 2z" fill="url(#Gradiente_sem_nome_4)"/><path class="cls-9" d="M75.9 34.3a31.1 31.1 0 0 0-5.7-6.7 65 65 0 0 0-6-4.9 39 39 0 0 0-.1 9.5c1 9.8 5 17.4 8.9 17 2.7-.2 4.7-4.2 5.4-9.8V39a54.3 54.3 0 0 0-2.5-4.7z" opacity=".8"/><path class="cls-9" d="M75.6 33.8a24.4 24.4 0 0 0-2.4-3.2l-2-2c-1.6-1.6-5.3-4.7-6-5.2v.6a39.3 39.3 0 0 0 0 7.3c.7 7.5 3.7 16.4 8.3 16.4 2 0 3.8-4.2 4.4-9.6V38a30.6 30.6 0 0 0-2.3-4.1z" opacity=".7"/><path class="cls-9" d="M75.5 33.6a18.8 18.8 0 0 0-2.1-2.8l-1.7-1.7a59.2 59.2 0 0 0-5-4.5v.7a33.6 33.6 0 0 0 0 6.4c.6 6.6 3 14 7 13.7 2.5-.3 3-3.6 3.7-8.3v-.3a25.2 25.2 0 0 0-2-3.2z"/><path class="cls-1" d="M73.7 43.7c1.7-.1 2.9-3.3 2.6-7a19.5 19.5 0 0 0-.4-2.5 18.7 18.7 0 0 0-3.2-4c-1.7 0-2.9 3.2-2.6 7s1.9 6.6 3.6 6.5z"/><path class="cls-10" d="M73.5 40.9c1 0 1.8-2 1.6-4.2a9.2 9.2 0 0 0-.7-3c-.6-1-1.9-1.5-2.6-.3a6.1 6.1 0 0 0-.5 3.5c.2 2.3 1.2 4.1 2.2 4z"/><path class="cls-11" d="M73.5 39.5c.7 0 1-1.3 1-2.7a6.4 6.4 0 0 0-.4-1.8c-.3-.7-1.2-1-1.6-.2A4 4 0 0 0 72 37c.2 1.4.8 2.5 1.4 2.5z"/><ellipse class="cls-2" cx="45.9" cy="33.8" rx="4.7" ry="9.7" transform="rotate(-41.6 46 33.8)"/><path d="M72.7 30a6.5 6.5 0 0 0-1 4.6c.3 2.8 1.8 4.9 3.5 4.7 1-.1 1.8-1.1 2.2-2.6a31.3 31.3 0 0 0-4.7-6.6z" style="isolation:isolate" opacity=".1" fill="#fff"/></svg>