<svg xmlns="http://www.w3.org/2000/svg" viewBox="0 0 913.7 194"><ellipse transform="rotate(-41.6 448.3 62.2)" opacity=".2" fill="#FFF" cx="448.3" cy="62.2" rx="7.9" ry="16.2"/><path opacity=".3" d="M529.4 115.5c-8.8.8-17.8-16.1-19.9-37.9-.8-7.7-.6-15 .4-21.2-5.7-4.1-12.2-8-19.3-11.4.9-6.3 2.6-12.4 5.1-18.3 6.3-16.1 15.3-5.4 18.2 4.2 2.9-8.6-3.4-18.6-13.9-17.3-10.5 1.3-17.1 28-17.1 28l-2.3-.9-5.8-2.1s-5.4-17.3-22-26.9c-13.2-7.7-34.7-10-57.2 1.3 0 0 53.6-14.1 69.9 22.8-22.1-5.8-48.7-7.4-67.9 1.6a54 54 0 0 0-26.2 70.2c17.7 42 73.4 74.1 118.4 73.2 49.4-1 73.3-44.4 51.6-88-1.3 13-5.8 22.1-12 22.7zM434 47.6c9.1-9.2 32.3-1.1 51.8 18.1 19.6 19.2 28.1 42.3 19 51.5-9.1 9.2-32.3 1.1-51.8-18.1-19.6-19.3-28.1-42.3-19-51.5z"/><path fill="#CF0" d="M96.1 66.2c0-1.3-.5-2.5-1.4-3.4-1-1-2.1-1.4-3.4-1.4H77.8c-1.8 0-3.1.5-3.9 1.4-.8 1-1.5 1.9-2 2.9l-23.8 55.6-23.9-55.6c-.5-1-1.1-1.9-2-2.9-.8-1-2.2-1.4-3.9-1.4H4.8c-1.3 0-2.5.5-3.4 1.4-1 1-1.4 2.1-1.4 3.4l.2 1.3 36 82.6a12 12 0 0 0 2 3c.8 1 2.2 1.4 3.9 1.4h11.8c1.8 0 3.1-.5 3.9-1.4.8-1 1.5-2 2-3l36-82.6c.2-.4.3-.8.3-1.3zm66.9 2.9c-3.7-3.2-8-5.6-12.6-7.1a51.1 51.1 0 0 0-16.5-2.4c-6.1 0-11.4.8-16 2.4a39.3 39.3 0 0 0-11.6 6.2c-5.3 4-9 9.7-10.6 16.2-.2 1.2.1 2.2.9 2.9.8.7 1.9 1.1 3 1.1h16.5c1.1 0 2.1-.2 3-.5.9-.4 1.9-1 3-2 1.6-1.4 3.2-2.6 4.8-3.4 1.7-.8 4-1.3 7-1.3 4.8 0 8.8 1 12 3s4.8 5.5 4.8 10.4l-29.2 5a50.5 50.5 0 0 0-23.5 9.5 23.2 23.2 0 0 0-8.8 19.4c-.3 7.6 2.9 15 8.6 20.1 2.7 2.5 6.2 4.5 10.2 5.8 4.1 1.4 8.7 2.1 13.8 2.1 7.3 0 13.3-1.2 18-3.7 4.7-2.4 8.3-5.4 10.8-8.9v5.9c0 1.3.5 2.5 1.4 3.4 1 1 2.1 1.4 3.4 1.4H169c1.3 0 2.5-.5 3.4-1.4 1-1 1.4-2.1 1.4-3.4V97a43 43 0 0 0-2.9-16.2 27.7 27.7 0 0 0-7.9-11.7zm-12.3 45.7c0 2.5-.5 5-1.6 7.3a21 21 0 0 1-12.8 11.1 33 33 0 0 1-10.8 1.7c-3.5 0-6.5-.6-9-1.8-2.6-1.2-3.9-3-3.9-5.6 0-2.7 1.1-4.9 3.2-6.5 2.2-1.6 5.7-2.8 10.6-3.7l24.4-4.3-.1 1.8zm115.1-53.4h-13.7c-1.3 0-2.5.5-3.4 1.4-1 1-1.4 2.1-1.4 3.4v4.1a34 34 0 0 0-9.4-7 42.3 42.3 0 0 0-33.8-.3c-4.8 2.3-9 5.4-12.4 9.3a46.6 46.6 0 0 0-11.4 29.3c-.2 4.2-.2 8.4 0 12.6a47.8 47.8 0 0 0 11.4 29.3c7.2 8.3 17.6 13 28.6 12.8 6.1 0 12.1-1.3 17.6-3.8a34 34 0 0 0 9.4-7v6.6c.2 6.1-2.6 11.8-7.4 15.5a30.5 30.5 0 0 1-27.5 2.9 18.5 18.5 0 0 1-6.4-5c-.8-1-1.9-2-3-3.1a6.3 6.3 0 0 0-4.3-1.7h-12.2c-1.3 0-2.5.5-3.5 1.4-1 1-1.5 2.1-1.3 3.4.2 3.6 1.5 7.1 3.8 10.5s5.3 6.5 9.1 9.1c3.8 2.7 8.3 4.8 13.5 6.5A57 57 0 0 0 225 194c14.2 0 25.4-3.7 33.4-11 8.1-7.3 12.1-18.3 12.1-32.7v-84c0-1.3-.5-2.5-1.4-3.4-.9-1-2-1.5-3.3-1.5zm-18.5 53.4c-.2 5.7-2.7 11-6.9 14.9-4 3.5-8.9 5.2-14.8 5.2s-10.8-1.7-14.9-5.1c-4.1-3.4-6.5-9-7.2-16.8-.4-3.3-.4-6.7 0-10 .7-7.8 3.1-13.4 7.2-16.8 4.1-3.4 9-5.1 14.9-5.1s10.8 1.8 14.8 5.4 6.3 8.5 6.9 14.7c.5 4.5.5 9 0 13.6zm102.1-45.7c-3.7-3.2-8-5.6-12.6-7.1a51.1 51.1 0 0 0-16.5-2.4c-6.1 0-11.4.8-16 2.4a39.3 39.3 0 0 0-11.6 6.2c-5.3 4-9 9.7-10.6 16.2-.2 1.2.1 2.2.9 2.9.8.7 1.9 1.1 3 1.1h16.7c1.1 0 2.1-.2 3-.5.9-.4 1.9-1 3-2 1.6-1.4 3.2-2.6 4.8-3.4 1.7-.8 4-1.3 7-1.3 4.8 0 8.8 1 12 3s4.8 5.5 4.8 10.4l-29.2 5a50.5 50.5 0 0 0-23.5 9.5 23.2 23.2 0 0 0-8.8 19.4c-.3 7.6 2.9 15 8.6 20.1 2.7 2.5 6.2 4.5 10.2 5.8 4.1 1.4 8.7 2.1 13.8 2.1 7.3 0 13.3-1.2 18-3.7 4.7-2.4 8.3-5.4 10.8-8.9v5.9c0 1.3.5 2.5 1.4 3.4 1 1 2.1 1.4 3.4 1.4h13.6c1.3 0 2.5-.5 3.4-1.4 1-1 1.4-2.1 1.4-3.4V97a43 43 0 0 0-2.9-16.2 29.8 29.8 0 0 0-8.1-11.7zm-12.3 45.7c0 2.5-.5 5-1.6 7.3a21 21 0 0 1-12.8 11.1 33 33 0 0 1-10.8 1.7c-3.5 0-6.5-.6-9-1.8-2.6-1.2-3.9-3-3.9-5.6 0-2.7 1.1-4.9 3.2-6.5 2.2-1.6 5.7-2.8 10.6-3.7l24.4-4.3v1.8h-.1zm236-87.5h-13.6c-1.3 0-2.5.5-3.4 1.4-1 1-1.4 2.1-1.4 3.4v117.6c0 1.3.5 2.5 1.4 3.4 1 1 2.1 1.4 3.4 1.4h13.6c1.3 0 2.5-.5 3.4-1.4 1-1 1.4-2.1 1.4-3.4V32.2c0-1.3-.5-2.5-1.4-3.4-1-1-2.1-1.5-3.4-1.5zm93.8 34.1h-13.6c-1.3 0-2.5.5-3.4 1.4-1 1-1.4 2.1-1.4 3.4v45.5c0 7.2-1.7 12.9-5 17.2a17.3 17.3 0 0 1-14.5 6.5c-6.9 0-11.9-2.2-15-6.5-3-4.3-4.6-10-4.6-17.2V66.2c0-1.3-.5-2.5-1.4-3.4-1-1-2.1-1.4-3.4-1.4H591c-1.3 0-2.5.5-3.4 1.4-1 1-1.4 2.1-1.4 3.4v48.2c0 5.6.6 11 1.8 16 1.2 5.1 3.2 9.5 6.1 13.4 2.9 3.8 6.7 6.9 11.5 9.1a41.7 41.7 0 0 0 18.1 3.4c5.7 0 10.6-1.1 14.7-3.3 4.1-2.2 7.5-4.7 10.2-7.4v4.1c0 1.3.5 2.5 1.4 3.4 1 1 2.1 1.4 3.4 1.4H667c1.3 0 2.5-.5 3.4-1.4 1-1 1.4-2.1 1.4-3.4V66.2c0-1.3-.5-2.5-1.4-3.4-1-.9-2.2-1.4-3.5-1.4zm145.5 10.7c-2.9-3.9-6.7-7-11-9.1a36.7 36.7 0 0 0-17-3.4 38.3 38.3 0 0 0-23.4 8.8c-2.2 1.8-4.2 4-5.7 6.5a31.3 31.3 0 0 0-11.3-11 36 36 0 0 0-31.2-1.4 29 29 0 0 0-10.4 8v-4.1c0-1.3-.5-2.5-1.4-3.4-1-1-2.1-1.4-3.4-1.4H684c-1.3 0-2.5.5-3.4 1.4-1 1-1.4 2.1-1.4 3.4v83.3c0 1.3.5 2.5 1.4 3.4 1 1 2.1 1.4 3.4 1.4h13.6c1.3 0 2.5-.5 3.4-1.4 1-1 1.4-2.1 1.4-3.4v-47.3c0-8 1.7-13.6 5.2-16.9s7.6-4.9 12.5-4.9c5.6 0 10 1.6 13.1 4.8 3.1 3.2 4.7 8.9 4.7 17v47.3c0 1.3.5 2.5 1.4 3.4 1 1 2.1 1.4 3.4 1.4h13.6c1.3 0 2.5-.5 3.4-1.4 1-1 1.4-2.1 1.4-3.4v-48.2c.2-7.8 2.1-13.2 5.5-16.3 3.4-3.1 7.5-4.7 12.3-4.7 5.6 0 10 1.6 13.1 4.8 3.1 3.2 4.7 8.9 4.7 17v47.4c0 1.3.5 2.5 1.4 3.4 1 1 2.1 1.4 3.4 1.4h13.6c1.3 0 2.5-.5 3.4-1.4 1-1 1.4-2.1 1.4-3.4v-48.2c0-5.6-.6-11-1.7-16-1-5.1-3-9.5-5.8-13.4zm98 15.5a42.1 42.1 0 0 0-41-28.1A43 43 0 0 0 828.5 89c-2 5.9-3 12.2-3 18.9 0 7.2 1 13.7 3 19.6 2 5.9 5 11 8.8 15.3s8.5 7.6 13.9 9.9a53 53 0 0 0 48.7-5.7 30 30 0 0 0 7.8-7.7c1.7-2.6 2.7-4.8 2.8-6.5.1-1.3-.3-2.4-1.3-3.4s-2.2-1.4-3.5-1.4h-14.3c-1.4 0-2.6.2-3.4.5-.8.4-1.9 1-3.2 2a21.9 21.9 0 0 1-5.9 3 29.8 29.8 0 0 1-17 .1c-2.5-.7-4.7-1.8-6.6-3.2-4-2.9-6.4-7.6-6.3-12.6h59.9c1.3 0 2.5-.5 3.4-1.4 1-1 1.4-2.1 1.4-3.4v-8.1a53.6 53.6 0 0 0-3.3-17.3zm-61.6 10a19 19 0 0 1 5.6-11c1.7-1.6 3.7-2.9 6.2-3.9 2.4-1 5.4-1.5 8.9-1.5 3.8 0 7 .5 9.4 1.5s4.4 2.3 5.9 3.9 2.6 3.4 3.2 5.4c.7 2 1.1 3.9 1.3 5.6h-40.5z"/><linearGradient id="a" gradientUnits="userSpaceOnUse" x1="456.1" y1="190.4" x2="456.1" y2="218.2" gradientTransform="matrix(1 0 0 -1 0 217.3)"><stop offset="0" stop-color="#333"/><stop offset="1" stop-color="#4d4d4d"/></linearGradient><path fill="url(#a)" d="M527 110.3c-8.8.8-17.7-16.1-19.9-37.8-.8-7.7-.6-14.9.4-21.1-5.7-4.1-12.1-7.9-19.2-11.3.3-3.2 1.5-8.9 5.1-18.2 6.3-16 15.3-5.4 18.2 4.1 2.9-8.6-3.4-18.6-13.9-17.3-10.4 1.3-17.1 28-17.1 28l-2.3-.9-5.7-2.1s-5.4-17.3-22-26.9c-13.2-7.6-34.7-9.9-57.1 1.3 0 0 53.5-14 69.8 22.8-22-5.8-48.6-7.4-67.7 1.6a53.8 53.8 0 0 0-26.1 70.1c17.7 42 73.3 74 118.2 73.1 49.3-1 73.2-44.3 51.5-87.9-1.5 12.8-6 21.9-12.2 22.5zm-95.2-67.8c9-9.2 32.2-1.1 51.7 18.1s28 42.2 19 51.4-32.2 1.1-51.7-18.1c-19.6-19.2-28.1-42.2-19-51.4z"/><ellipse transform="rotate(-44.2 480.6 85.4)" fill="#2D2D2D" cx="480.6" cy="85.4" rx="10" ry="19.1"/><path opacity=".2" d="M426.8 48c-8.3 9.9 2.1 32.1 23.1 49.7 21 17.5 44.8 23.7 53 13.8 8.3-9.9-2.1-32.1-23.1-49.7-21-17.5-44.7-23.7-53-13.8z"/><path opacity=".8" fill="#5D5D5D" d="M431.5 42.5c-9 9.2-.5 32.2 19 51.4s42.7 27.3 51.7 18.1.5-32.2-19-51.4-42.6-27.3-51.7-18.1z"/><path opacity=".8" fill="#CF0" d="M431.5 42.5c-9 9.2-.5 32.2 19 51.4s42.7 27.3 51.7 18.1.5-32.2-19-51.4-42.6-27.3-51.7-18.1z"/><path opacity=".7" fill="#CF0" d="M438.3 47.7c-8 8.2-.5 28.7 16.9 45.7 17.4 17.1 38 24.3 46 16.1s.5-28.7-16.9-45.7c-17.4-17.1-38-24.3-46-16.1z"/><path fill="#CF0" d="M453.2 60.2c-5.9 6-.4 21 12.4 33.6 12.8 12.5 27.9 17.8 33.8 11.8 5.9-6 .4-21-12.4-33.6-12.7-12.5-27.8-17.8-33.8-11.8z"/><ellipse transform="rotate(-44.2 480.4 85.4)" fill="#2D2D2D" cx="480.4" cy="85.4" rx="10" ry="19.1"/><ellipse transform="rotate(-44.2 480.4 85.4)" fill="#333" cx="480.4" cy="85.4" rx="7.3" ry="13.9"/><ellipse transform="rotate(-44.2 479.1 83.8)" fill="#424242" cx="479.2" cy="83.8" rx="4.5" ry="8.5"/><path opacity=".3" d="M492.4 161.4c-12.9 1.2-47-4.1-44.5-14.8 1.8-7.5 11.8-1.4 24.8 3.7 9.1 3.6 21.5 5.6 26 6.4 10.9 2 6.6 3.5-6.3 4.7zM530.5 74.9a68.7 68.7 0 0 0-7-9.1l-5.5-5.7c-3.4-3.3-7-6.3-10.9-9a40.2 40.2 0 0 0-2.8 19.4c2.2 21.7 11.1 38.6 19.9 37.8 6.1-.6 10.6-9.6 12-22.3a58.2 58.2 0 0 0-5.7-11.1z"/><path fill="#CF0" d="M533.4 76.6a68.7 68.7 0 0 0-7-9.1l-5.5-5.7c-4.8-4.6-11-9.2-13.3-10.9v.1c-.9 7-1.1 14.1-.4 21.1 2.2 21.7 11.1 38.6 19.9 37.8 6.1-.6 10.6-9.6 12-22.3a76.4 76.4 0 0 0-5.7-11z"/><path fill="#2D2D2D" d="M528.6 97.7c3.8-.2 6.3-7.2 5.6-15.6-.2-2-.5-3.9-.9-5.6-2-3.2-4.6-6.6-6.9-9.1h-.2c-3.8.2-6.3 7.2-5.6 15.6.6 8.4 4.3 14.9 8 14.7z"/><path fill="#333" d="M528.3 91.5c2.3-.2 3.8-4.4 3.4-9.4a20 20 0 0 0-1.5-6.4c-1.1-2.4-4.1-3.4-5.7-.7a12.9 12.9 0 0 0-1.2 7.7c.5 5 2.7 9 5 8.8z"/><path fill="#424242" d="M527.8 86.9c1.4-.1 2.4-2.7 2.1-5.8-.1-1.3-.4-2.8-.9-4-.7-1.5-2.6-2.1-3.5-.4-.7 1.5-1 3.1-.7 4.7.3 3.1 1.6 5.6 3 5.5z"/><path fill="#D8D8D8" d="M493.9 159.3c-12.9 1.2-47-4.1-44.5-14.8 1.8-7.5 11.8-1.4 24.8 3.7 9.1 3.6 21.5 5.6 26 6.4 10.9 1.9 6.6 3.5-6.3 4.7z"/><linearGradient id="b" gradientUnits="userSpaceOnUse" x1="455.7" y1="182.4" x2="455.7" y2="225.6" gradientTransform="matrix(1 0 0 -1 0 217.3)"><stop offset="0" stop-color="#1e1e1e"/><stop offset="1" stop-color="#4d4d4d"/></linearGradient><path fill="url(#b)" d="M527.3 110.8c-8.9.8-17.9-16.2-20-38.1-.8-7.1-.6-14.2.4-21.3-5.8-4.2-12.2-8-19.4-11.4.3-3.2 1.5-9 5.2-18.4 6.3-16.2 15.4-5.5 18.3 4.2 2.9-8.7-3.5-18.7-14-17.4s-17.2 28.2-17.2 28.2l-2.3-.9-5.8-2.1s-5.4-17.4-22.1-27.1c-13.3-7.7-35-10-57.6 1.4 0 0 53.9-14.2 70.3 23-22.2-5.8-49-7.4-68.3 1.6-26.4 12.5-38.1 43.7-26.4 70.5 17.8 42.3 73.9 74.5 119.1 73.7 49.7-1 73.8-44.7 51.9-88.6-1.4 12.9-5.9 22.1-12.1 22.7zm-96-68.3c9.1-9.3 32.5-1.1 52.1 18.3 19.7 19.3 28.2 42.6 19.1 51.8-9.1 9.3-32.5 1.1-52.1-18.3-19.7-19.4-28.3-42.6-19.1-51.8z"/><radialGradient id="c" cx="406.9" cy="143.9" r="72.9" gradientTransform="matrix(1 0 0 -1 0 217.3)" gradientUnits="userSpaceOnUse"><stop offset=".2" stop-color="#4f4f4f"/><stop offset="1" stop-color="#1e1e1e"/></radialGradient><path fill="url(#c)" d="M396.3 139.7c20.8 18 46 30.1 73 35.1a104 104 0 0 0 27.3.6 61 61 0 0 0 34.7-16 52.7 52.7 0 0 0 15.7-31.9 69.5 69.5 0 0 0-7.7-40c-5.6-9.7-9.7-15.9-13.7-20.7-5.3-6.2-10.4-10-18.1-16A123 123 0 0 0 480.4 36l-2.3-.9-5.8-2.1s-5.9-2-9.4-2.8c-3.9-1-7.9-1.9-12-2.6l-7.2-1.1c-13.2-2-26.7-1.3-39.7 1.9l-1.6.5A52.8 52.8 0 0 0 367.6 61c-5 12.9-5 27.8.8 41.5 1.3 3.2 2.9 6.3 4.6 9.3a115.4 115.4 0 0 0 23.3 27.9z"/><ellipse transform="rotate(-44.2 480.5 85.7)" fill="#2D2D2D" cx="480.6" cy="85.7" rx="10.1" ry="19.2"/><path opacity=".2" d="M426.3 48c-8.3 10 2.1 32.4 23.3 50.1 21.2 17.7 45.1 23.9 53.5 13.9 8.3-10-2.1-32.4-23.3-50.1C458.5 44.3 434.6 38 426.3 48z"/><path opacity=".8" fill="#5D5D5D" d="M431 42.5c-9.1 9.3-.5 32.5 19.1 51.8 19.7 19.4 43 27.5 52.1 18.3 9.1-9.3.5-32.5-19.1-51.8-19.6-19.4-43-27.6-52.1-18.3z"/><path opacity=".8" fill="#CF0" d="M431 42.5c-9.1 9.3-.5 32.5 19.1 51.8 19.7 19.4 43 27.5 52.1 18.3 9.1-9.3.5-32.5-19.1-51.8-19.6-19.4-43-27.6-52.1-18.3z"/><path opacity=".7" fill="#CF0" d="M437.8 47.7c-8.1 8.2-.5 28.9 17 46.1s38.3 24.5 46.4 16.2c8.1-8.2.5-28.9-17-46.1s-38.3-24.5-46.4-16.2z"/><path fill="#CF0" d="M452.9 60.3c-6 6.1-.4 21.2 12.5 33.8s28.1 18 34.1 11.9.4-21.2-12.5-33.8-28.1-17.9-34.1-11.9z"/><ellipse transform="rotate(-44.2 480.2 85.7)" fill="#2D2D2D" cx="480.3" cy="85.7" rx="10.1" ry="19.2"/><ellipse transform="rotate(-44.2 480.2 85.7)" fill="#333" cx="480.3" cy="85.7" rx="7.4" ry="14"/><ellipse transform="rotate(-44.2 478.9 84.2)" fill="#424242" cx="478.9" cy="84.2" rx="4.5" ry="8.6"/><path opacity=".3" d="M492.4 162.3c-13 1.2-47.4-4.2-44.9-15 1.8-7.6 11.9-1.4 25 3.8 9.2 3.6 21.6 5.7 26.2 6.5 11 2 6.7 3.5-6.3 4.7z"/><g opacity=".3"><path d="M530.8 75.1a71.7 71.7 0 0 0-12.6-14.9c-4.9-4.7-8.7-7.4-11-9.1a40.7 40.7 0 0 0-2.8 19.5c2.2 21.9 11.2 38.9 20 38.1 6.2-.6 10.7-9.6 12.1-22.5a72.6 72.6 0 0 0-5.7-11.1z"/></g><linearGradient id="d" gradientUnits="userSpaceOnUse" x1="478.6" y1="69.4" x2="477.1" y2="63.7" gradientTransform="matrix(1 0 0 -1 0 217.3)"><stop offset="0" stop-color="#fff"/><stop offset="1" stop-color="#d8d8d8"/></linearGradient><path fill="url(#d)" d="M493.9 160.2c-13 1.2-47.4-4.2-44.9-15 1.8-7.6 11.9-1.4 25 3.8 9.2 3.6 21.6 5.7 26.2 6.5 11 1.9 6.6 3.5-6.3 4.7z"/><g><path fill="#CF0" d="M533.7 76.8a71.7 71.7 0 0 0-12.6-14.9c-4.9-4.7-11.1-9.3-13.4-11v.1c-1 6.2-1.1 13.5-.4 21.3 2.2 21.9 11.2 38.9 20 38.1 6.1-.6 10.6-9.5 12.1-22.1l.1-.8c-1.9-4-3.6-7-5.8-10.7z" opacity=".8"/><path fill="#CF0" d="M533.1 75.7c-2-3-3.4-4.9-5.4-7.1l-4.3-4.4c-3.8-3.6-12-10.5-13.8-11.8l-.1 1.5c-.5 5.4-.4 10.8.1 16.2 1.7 16.9 8.5 36.7 18.7 36.7 4.7 0 8.5-9.3 10-21.3v-.6a64 64 0 0 0-5.2-9.2z" opacity=".7"/><path fill="#CF0" d="M532.8 75.3a40.4 40.4 0 0 0-4.7-6.2l-3.8-3.9c-2.9-3.2-9.7-8.8-11.2-10l-.1 1.6c-.4 4-.4 9 .1 14.2 1.5 14.8 6.8 31.4 15.6 30.6 5.6-.5 7-8 8.3-18.5v-.6a52 52 0 0 0-4.2-7.2z"/><path fill="#2D2D2D" d="M528.9 97.8c3.8-.2 6.4-7.3 5.7-15.7-.2-2-.5-3.9-.9-5.6-1.7-3-3.9-5.9-7.1-9.1l-.1-.1c-3.8.3-6.4 7.3-5.7 15.7.6 8.4 4.3 15.1 8.1 14.8z"/><path fill="#333" d="M528.5 91.6c2.3-.2 3.9-4.4 3.4-9.5-.2-2.1-.6-4.6-1.5-6.5-1.2-2.4-4.2-3.4-5.7-.7a13.7 13.7 0 0 0-1.2 7.7c.5 5.2 2.7 9.2 5 9z"/><path fill="#424242" d="M528.4 88.4c1.5-.1 2.4-2.8 2.2-6-.1-1.3-.4-2.9-.9-4.1-.7-1.5-2.6-2.2-3.6-.4-.8 1.4-.9 3.3-.8 4.9.3 3.1 1.7 5.7 3.1 5.6z"/></g><ellipse transform="rotate(-41.6 466.7 75.7)" opacity=".2" fill="#FFF" cx="466.7" cy="75.7" rx="10.4" ry="21.6"/><path opacity=".1" fill="#FFF" d="M526.6 67.4c-1.9 3-2.7 6.5-2.2 10 .6 6.3 4.1 11 7.8 10.6 2.3-.3 4.2-2.5 5.1-5.7a68.7 68.7 0 0 0-10.7-14.9z"/></svg>