<svg id="Camada_1" data-name="Camada 1" xmlns="http://www.w3.org/2000/svg" viewBox="0 0 350 350"><title>grunge</title><path d="M160.33,159.77l-.06-.08-7.62-9.56,7.28-9.17.06-.08.06-.08a3.61,3.61,0,0,0,.6-2,3.49,3.49,0,0,0-1-2.48,3.55,3.55,0,0,0-2.53-1h-2.24a3.76,3.76,0,0,0-2.64,1,8,8,0,0,0-.79.83l-4.56,5.77-4.59-5.77a8,8,0,0,0-.81-.85,3.76,3.76,0,0,0-2.63-1h-2.34a3.55,3.55,0,0,0-2.53,1,3.49,3.49,0,0,0-1,2.48,3.62,3.62,0,0,0,.6,2l.06.09.06.08,7.23,9.07-7.72,9.66-.06.08-.06.08a3.61,3.61,0,0,0-.6,2,3.48,3.48,0,0,0,1.05,2.49,3.53,3.53,0,0,0,2.52,1h2.24a3.76,3.76,0,0,0,2.64-1,7.66,7.66,0,0,0,.8-.85l5-6.26,5,6.26a7.7,7.7,0,0,0,.81.85,3.74,3.74,0,0,0,2.63,1h2.34a3.55,3.55,0,0,0,2.53-1,3.49,3.49,0,0,0,1-2.48,3.61,3.61,0,0,0-.6-2Z" fill="#fff"/><path d="M216.92,159.77l-.06-.07-7.62-9.56,7.28-9.17.06-.08.05-.08a3.61,3.61,0,0,0,.6-2,3.49,3.49,0,0,0-1-2.48,3.55,3.55,0,0,0-2.53-1h-2.24a3.76,3.76,0,0,0-2.64,1,7.86,7.86,0,0,0-.79.83l-4.56,5.77-4.59-5.77a8.09,8.09,0,0,0-.81-.85,3.76,3.76,0,0,0-2.63-1h-2.34a3.55,3.55,0,0,0-2.53,1,3.49,3.49,0,0,0-1,2.48,3.61,3.61,0,0,0,.6,2l.06.08.06.08,7.23,9.07-7.72,9.66-.06.08-.05.08a3.6,3.6,0,0,0-.6,2,3.48,3.48,0,0,0,1.05,2.48,3.53,3.53,0,0,0,2.52,1h2.24a3.76,3.76,0,0,0,2.64-1,7.66,7.66,0,0,0,.8-.85l5-6.26,5,6.26a7.7,7.7,0,0,0,.81.85,3.74,3.74,0,0,0,2.63,1H214a3.55,3.55,0,0,0,2.53-1,3.49,3.49,0,0,0,1-2.48,3.6,3.6,0,0,0-.61-2Z" fill="#fff"/><path d="M175,93a82,82,0,1,0,52.36,145,15.56,15.56,0,0,0,11.83-12.12A81.93,81.93,0,0,0,175,93Zm56.77,137.78c-5.44,5.38-15.43,4.24-22.28-2.54a21.35,21.35,0,0,1-2.84-3.47,49.48,49.48,0,0,0,19.42-18.56,21.4,21.4,0,0,1,3.13,2.56,19.16,19.16,0,0,1,6,13.32A11.91,11.91,0,0,1,231.77,230.78Zm5-19.32a25.78,25.78,0,0,0-4.43-5.85h0a25.85,25.85,0,0,0-5.18-3.95,48.89,48.89,0,0,0,3.94-8.58,5.13,5.13,0,0,0-9.82-2.94c-.09.31-9.58,30.62-46.26,30.62-36.44,0-45.89-29.38-46.27-30.63a5.12,5.12,0,0,0-9.81,3C119,193.46,130.77,231,175,231a62.45,62.45,0,0,0,26.87-5.64A25.53,25.53,0,0,0,212.75,236a71.91,71.91,0,1,1,24-24.54Z" fill="#fff"/></svg>