<svg id="Camada_1" data-name="Camada 1" xmlns="http://www.w3.org/2000/svg" viewBox="0 0 350 350"><title>hardcore</title><path d="M188.91,175.88l70.75-70.75a6,6,0,1,0-8.43-8.43l-70.75,70.75L109.72,96.69a6,6,0,1,0-8.43,8.43L172,175.88l-70.75,70.75a6,6,0,1,0,8.43,8.43l70.75-70.75,70.75,70.75a6,6,0,1,0,8.43-8.43Z" fill="#fff"/><path d="M93.83,193.81h-3V179.74h22.09v14.07h-2.65a3.41,3.41,0,0,0-3.31,3.48,3.45,3.45,0,0,0,3.31,3.48H123a3.45,3.45,0,0,0,3.31-3.48,3.41,3.41,0,0,0-3.31-3.48h-3.51V179.74h3.11a3.49,3.49,0,0,0,0-7h-3.11V159h3a3.36,3.36,0,0,0,3.31-3.48,3.41,3.41,0,0,0-3.31-3.48h-12.7a3.41,3.41,0,0,0-3.31,3.48,3.37,3.37,0,0,0,3.31,3.48h3v13.79H90.79V159h3a3.37,3.37,0,0,0,3.31-3.48A3.41,3.41,0,0,0,93.83,152H81.13a3.41,3.41,0,0,0-3.31,3.48A3.36,3.36,0,0,0,81.13,159h3v13.79h-3a3.49,3.49,0,0,0,0,7h3v14.07h-3a3.36,3.36,0,0,0-3.31,3.48,3.41,3.41,0,0,0,3.31,3.48h12.7a3.41,3.41,0,0,0,3.31-3.48A3.37,3.37,0,0,0,93.83,193.81Z" fill="#fff"/><path d="M268.87,165.1a3.5,3.5,0,0,0,3.31-3.68v-7.49a3.48,3.48,0,0,0-3.31-3.6H252.14c-30.29,0-30.29,50.45,0,50.45h16.73a3.66,3.66,0,0,0,0-7.28H252.14c-21.56,0-21.56-36,0-36h13.43v3.89A3.54,3.54,0,0,0,268.87,165.1Z" fill="#fff"/><path d="M180.7,226a25.8,25.8,0,0,0-25.78,25.8V264a2,2,0,0,0,.81,1.63L166.81,274v6.94a2,2,0,0,0,2.05,2.05h1.65a2,2,0,0,0,2.05-2.05v-2.82a1.3,1.3,0,0,1,2.6,0v2.82a2,2,0,0,0,2.05,2.05h.07a2,2,0,0,0,2.05-2.05v-2.82a1.3,1.3,0,0,1,1.3-1.3h.14a1.3,1.3,0,0,1,1.3,1.3v2.82a2,2,0,0,0,2.05,2.05h.07a2,2,0,0,0,2.05-2.05v-2.82a1.3,1.3,0,0,1,2.6,0v2.82a2,2,0,0,0,2.05,2.05h1.65a2,2,0,0,0,2.05-2.05V274l11.09-8.41a2,2,0,0,0,.81-1.63V251.8A25.81,25.81,0,0,0,180.7,226Zm-10.78,38.15a7.11,7.11,0,1,1,7.11-7.11A7.11,7.11,0,0,1,169.92,264.16Zm12.8,5.23h-4a1.23,1.23,0,0,1-1.08-1.83l2-3.67a1.23,1.23,0,0,1,2.15,0l2,3.67A1.24,1.24,0,0,1,182.72,269.39Zm8.76-5.23a7.11,7.11,0,1,1,7.11-7.11A7.11,7.11,0,0,1,191.48,264.16Z" fill="#fff"/><path d="M165.68,105.85s1.26,3.24,1.66,4.5h-2.19v2c-1.38.2-3.71,1.06-3.71,2.08s2.33,1.88,3.71,2.09v2h3.36v11.37h25.37V118.51h1.92v-2c1.37-.19,3.76-1.05,3.76-2.09s-2.39-1.9-3.76-2.09v-2h-1.59V74.64a3.57,3.57,0,0,0-7.14,0v7.3H172.82V70.56a3.57,3.57,0,0,0-7.13,0V91.2s-5.6-4.84-8.78-2.2-1.79,4.87-1.79,4.87Zm29.06,5.55v1a2.12,2.12,0,0,0,0,4.09v1H166.21v-1a2.12,2.12,0,0,0,0-4.11v-1Z" fill="#fff"/><path d="M173.09,116.55a2.13,2.13,0,1,0,0-4.26c-1.18,0-3.19,1-3.19,2.13S171.91,116.55,173.09,116.55Z" fill="#fff"/><circle cx="180.49" cy="114.42" r="2.13" fill="#fff"/><path d="M187.9,116.55c1.17,0,3.19-1,3.19-2.13s-2-2.13-3.19-2.13a2.13,2.13,0,0,0,0,4.26Z" fill="#fff"/></svg>