<svg id="Camada_1" data-name="Camada 1" xmlns="http://www.w3.org/2000/svg" viewBox="0 0 350 350"><title>heavy-metal</title><path d="M135.59,84h-.2v85.37H116.18V92.24c0-.24-.14-.37-.41-.41H89.41c-.24,0-.38.14-.41.41V208.62l26.77,27a.36.36,0,0,0,.41-.41V196.62h19.21v30.55a.36.36,0,0,0,.41.41h26.36a.36.36,0,0,0,.41-.41V111Q151.18,99.34,135.59,84Zm25.49,141.87H136.87V195.34c0-.24-.15-.37-.46-.41H115.16a.42.42,0,0,0-.46.41v36.48q-2.81-2.35-24.22-24.06V93.52H114.7v76.94c0,.27.16.41.46.41h21.25c.31,0,.46-.14.46-.41V87.59q12.06,11.8,24.22,24.27Z" fill="#fff"/><path d="M136.66,177h.2q0-1.18-3.58-4.85h-2.76v.2A31.61,31.61,0,0,0,136.66,177Z" fill="#fff"/><path d="M139.83,92.65l-1.48-.82h-.25v1.23q2.86,2.2,6.33,9.09l-.41.2a11.57,11.57,0,0,0,.2,1.89,1.59,1.59,0,0,0-.2.66h-.2a25.22,25.22,0,0,0-5.47-8h-.25v5.67a26.58,26.58,0,0,0,4.85,4.44h.66l.41-.2q.05,1.43,2.76,4,6.95,6.44,6.95,7.61V119h-.41q-8.28-8.48-8.69-8.63h-.2l-.41.2a6.57,6.57,0,0,1-.82-1.89q-2.51-2.76-4.65-5.26h-.46v6.28c.65.85,1.07,1.28,1.28,1.28q2.71,3.17,4.65,3.17,0,1.18,3.58,4.65,6.13,5.52,6.13,6.74v.61h-.41q-8.28-8.48-8.69-8.63h-.2l-.41.2a6.59,6.59,0,0,1-.82-1.89q-2.51-2.76-4.65-5.26h-.46v6.33c.65.85,1.07,1.28,1.28,1.28q2.71,3.12,4.65,3.12,0,1.18,3.58,4.65,6.13,5.57,6.13,6.74v.66h-.41l-8.69-8.69h-.2l-.41.26a6.26,6.26,0,0,1-.82-1.94q-2.51-2.71-4.65-5.26h-.46v6.33c.65.85,1.07,1.28,1.28,1.28q2.71,3.17,4.65,3.17,0,1.12,3.58,4.6,6.13,5.57,6.13,6.79v.61h-.41q-8.28-8.48-8.69-8.63h-.2l-.41.2a6.59,6.59,0,0,1-.82-1.89q-2.51-2.76-4.65-5.26h-.46v6.28c.65.85,1.07,1.28,1.28,1.28q2.71,3.17,4.65,3.17,0,1.18,3.58,4.65,6.13,5.52,6.13,6.74v.61h-.41L144.63,139h-.2l-.41.2a6.57,6.57,0,0,1-.82-1.89q-2.51-2.76-4.65-5.26h-.46v6.33c.65.82,1.07,1.22,1.28,1.22q2.71,3.17,4.65,3.17,0,1.18,3.58,4.65,6.13,5.52,6.13,6.74v.66h-.41l-8.69-8.69h-.2l-.41.2a5.87,5.87,0,0,1-.82-1.89q-2.51-2.71-4.65-5.26h-.46v6.33c.65.85,1.07,1.28,1.28,1.28Q142.08,150,144,150q0,1.12,3.58,4.6,6.13,5.57,6.13,6.74V162h-.41l-8.69-8.63h-.2l-.41.2a6.59,6.59,0,0,1-.82-1.89q-2.51-2.76-4.65-5.31h-.46v6.33c.65.85,1.07,1.28,1.28,1.28q2.71,3.17,4.65,3.17,0,1.18,3.58,4.65,6.13,5.52,6.13,6.74v.61h-.41q-8.28-8.48-8.69-8.63h-.2l-.41.2a6.57,6.57,0,0,1-.82-1.89q-2.51-2.76-4.65-5.26h-.46v6.33c.65.82,1.07,1.23,1.28,1.23q2.71,3.17,4.65,3.17,0,1.18,3.58,4.65,6.13,5.52,6.13,6.74v.61q-.46,0-2.35-1.89l-6.49-6.74-1.07.2a9,9,0,0,0-1.07-2.5q-4.19-4.29-4.19-4.65h-.46v6.13q4.19,3.94,5.52,4a9.12,9.12,0,0,0,2.3,3.58q7.81,7.31,7.81,8.43v.66h-.41q-8.48-8.69-8.89-8.89h-2.3q-.2,0-1.07-1-2-5.06-2.71-5.06h-.25v3.37l.46.61q3.78,1.48,3.78,4.85,0,.61,5.67,6.33,5.72,5.11,5.72,6.33v.61q-.46,0-2.09-1.69-9.09-9.3-9.3-9.3-1.53-2.09-5.06-2.09c0,.2-.43.56-1.28,1.07l10.32,10.52q7.41,6.85,7.41,8v.61h-.41q-7.2-7.36-7.41-7.36Q135.59,180,135.39,180q-.51-1.43-4.45-2.15-.81-2.4-4.39-5.67h-3.17v.2q5.26,5,6.95,5.47,0,.46-1.48.66v.2l8.63,8.84v.2h-.61a2.42,2.42,0,0,1-1.28-.41q-7.36-7.61-7.61-7.61,0-1-4.19-1.89-.87-2.4-4.44-5.67H115v.2l8.23,5.47q0,.46-1.48.66v.2q8.22,8.48,8.63,8.63l-.2.41-1.48-.2-7.82-7.82q0-1-4.19-1.89-1.69-5.67-3.17-5.67V95.21c0-.27-.15-.43-.46-.46h-3.37v.46l.87,1.48v.2q-3.12-1.28-3.78-2.15h-3.37V95q4.39,3.78,4.39,5.06a2.39,2.39,0,0,1-.41,1.23,18.87,18.87,0,0,1-3.58-.82q-.26-1.53-4.24-5.72H96.61V95a19,19,0,0,0,6.49,5.47q0,.41-1.43.61v.46q5.67,5.11,5.67,6.28v.66h-.41L101.42,103a4.26,4.26,0,0,0-4-2.09Q92.27,95.21,92,95.21h-.2v3.58A17.54,17.54,0,0,0,97,103.84l.41-.2h.2q0,1.07,2.76,3.78,6.94,6.44,6.95,7.61v.61h-.2l-1.48-1.28L98.3,107h-.46v.41h-.2q-1.07-3.32-5.67-7.15h-.2v6.08A23.54,23.54,0,0,0,97,111l.41-.2h.2q0,1.12,2.76,3.78,6.94,6.44,6.95,7.61v.61h-.2l-1.48-1.23q-7.16-7.41-7.36-7.41h-.46v.41h-.2q-.31-2.1-5.67-7.36h-.2v6.33A25.52,25.52,0,0,0,97,118.2l.41-.26h.2q0,1.12,2.76,3.83,6.94,6.44,6.95,7.56V130h-.2l-1.48-1.28q-7.16-7.41-7.36-7.41h-.46v.46h-.2q-.31-2.14-5.67-7.41h-.2v6.33A25.43,25.43,0,0,0,97,125.35l.41-.2h.2q0,1.07,2.76,3.78,6.94,6.44,6.95,7.61v.61h-.2l-1.48-1.28q-7.16-7.36-7.36-7.36h-.46v.41h-.2q-.31-2.09-5.67-7.36h-.2v6.28A25.53,25.53,0,0,0,97,132.5l.41-.2h.2q0,1.12,2.76,3.78,6.94,6.44,6.95,7.61v.61h-.2L105.66,143q-7.16-7.36-7.36-7.36h-.46v.41h-.2q-.31-2.1-5.67-7.36h-.2v6.33a23.87,23.87,0,0,0,5.26,4.6l.41-.2h.2q0,1.12,2.76,3.83,6.94,6.39,6.95,7.56v.66h-.2l-1.48-1.28q-7.16-7.41-7.36-7.41h-.46v.46h-.2q-.31-2.14-5.67-7.41h-.2v6.33A25.48,25.48,0,0,0,97,146.86l.41-.2h.2q0,1.07,2.76,3.78,6.94,6.44,6.95,7.56v.66h-.2l-1.48-1.28Q98.5,150,98.3,150h-.46v.41h-.2q-.31-2.1-5.67-7.41h-.2v6.33A25.52,25.52,0,0,0,97,154l.41-.2h.2q0,1.12,2.76,3.78,6.94,6.44,6.95,7.61v.61h-.2l-1.48-1.28-7.36-7.36h-.46v.41h-.2q-.31-2.09-5.67-7.36h-.2v6.33a23.87,23.87,0,0,0,5.26,4.6l.41-.2c.27,0,.41.22.41.66s3.1,3.76,9.3,9.66q0,2.66,8.63,6.33v.2c0,.31-.43.46-1.28.46v.41q8.23,8.48,8.69,8.63l-.25.41q-1.59,0-3.78-2.5l-2.3-2.56q-3.53-3.17-3.58-3.58A10,10,0,0,1,110.1,177q0-1.94-4.24-5.06l-7.56-7.61h-.46v.41h-.2q-.31-2.09-5.67-7.36h-.2v6.33A25.52,25.52,0,0,0,97,168.37l.41-.26q.41,0,.41.66,0,.87,18.14,18.55a.36.36,0,0,1-.41.41h-.2q-1,0-3.17-2.3-6.64-6.85-6.95-6.95-6.64-6.85-6.95-6.95h-.46v.41h-.2q-.31-2.1-5.67-7.41h-.2v6.33A25.43,25.43,0,0,0,97,175.52l.41-.2q.2,0,1.07,1.89,11.13,10.62,11.14,11.8v.2q-.76,0-2.5-1.69-8.48-8.69-8.84-8.84h-.46v.41h-.2Q97.33,177,92,171.74h-.2V178A23.54,23.54,0,0,0,97,182.67l.41-.2a14.36,14.36,0,0,0,2.3,3.17q7.81,7.15,7.81,8.63l-.2.41a11,11,0,0,1-1.48-1.23q-7.31-7.56-7.56-7.61h-.46v.41h-.2q-.31-2.1-5.67-7.36h-.2v6.33A25.52,25.52,0,0,0,97,189.87l.41-.26h.2q0,1.12,2.76,3.83,6.94,6.44,6.95,7.56v.66h-.2l-1.48-1.28Q98.5,193,98.3,193h-.46v.46h-.2Q97.33,191.3,92,186h-.2v6.33A25.43,25.43,0,0,0,97,197l.41-.2h.2q0,1.07,2.76,3.78,6.94,6.44,6.95,7.61v.61h-.2l-1.48-1.28-7.36-7.36h-.46v.41h-.2q-.31-2.09-5.67-7.36h-.2v6.28l5.06,5.31v.2A42.54,42.54,0,0,1,92,200.4h-.2v7.15q7.87,8.23,21.51,21.3h.2v-35H138.1v9c.65.85,1.07,1.28,1.28,1.28q2.71,3.17,4.65,3.17,0,1.18,3.58,4.65,6.13,5.52,6.13,6.74h-.2a2.44,2.44,0,0,1-1.28-.41l-7.61-7.61h-.2l-.41.2a6.59,6.59,0,0,1-.82-1.89q-2.51-2.76-4.65-5.26h-.46v6.33c.65.82,1.07,1.23,1.28,1.23q2.71,3.17,4.65,3.17,0,1.38,3,3.83a.36.36,0,0,1-.41.41h-.26a2.6,2.6,0,0,1-1.69-.87h-.2l-.41.2a5.87,5.87,0,0,1-.82-1.89q-2.51-2.71-4.65-5.26h-.46v6.33l1.48,1.69v.2q-1-.56-1-1.07h-.46v6.33a.41.41,0,0,0,.46.46H159.4a.41.41,0,0,0,.46-.46V112.07q-10.22-10.42-19.62-19.62Zm13.9,119.55h-.41l-8.69-8.63h-.2l-.41.2a25.67,25.67,0,0,0-3.58-5.26h.2a5.27,5.27,0,0,0,3.37,1.69q0,1.12,3.58,4.65,6.13,5.52,6.13,6.74Zm0-7.15h-.41q-8.28-8.48-8.69-8.69h-.2l-.41.26a27.88,27.88,0,0,0-2.1-3.83,5.35,5.35,0,0,1,1.89.46,19.89,19.89,0,0,0,3,3.58q6.95,6.44,6.95,7.56Z" fill="#fff"/><path d="M234.84,142.25h.2q0-1.48-2.55-3.63-1,.82-1,1.07Q233.82,142.25,234.84,142.25Z" fill="#fff"/><path d="M260.59,130H237.35l-20.9,20.69L195.56,130H172.31c-.24,0-.38.14-.41.41V265.57a.36.36,0,0,0,.41.41h26.21a.36.36,0,0,0,.41-.41V173.51l17.32,17.27h.2l17.32-17.06v91.86a.36.36,0,0,0,.41.41h26.41a.36.36,0,0,0,.41-.41V130.39C261,130.15,260.86,130,260.59,130ZM259.52,264.3H235.46V169.88h-.2l-18.8,18.6-18.8-18.6h-.2V264.3H173.38V131.67h21.56L216.25,153h.2L238,131.67h21.51Z" fill="#fff"/><path d="M231.27,145.82h.2q0-1.48-2.55-3.58-1.08.77-1.07,1Q230.25,145.82,231.27,145.82Z" fill="#fff"/><path d="M236.12,135c-.71.55-1.07.9-1.07,1.07a8.45,8.45,0,0,0,3.37,2.5h.2Q238.62,137.44,236.12,135Z" fill="#fff"/><path d="M179.92,137.6q0-1.58-3.78-4.85h-1.07c-.24,0-.38.14-.41.41v.2Q178.18,137.14,179.92,137.6Z" fill="#fff"/><path d="M245.37,138.41q0,.46-1.43.66v.2a11.23,11.23,0,0,1,1.23,1.48q7.2,6.64,7.2,7.82v.61h-.2l-6.54-6.33q-2.76-3.17-4-3.17H240.1c-.24,0-.37.14-.41.41v1.48q0,1,4.85,5.72,7.82,7.31,7.82,8.43v.66h-.2l-6.8-6.54q-5.92-6.59-7.35-6.59h-1.48c-.24,0-.38.15-.41.46v1.69q0,.67,9,9.71,7.2,6.64,7.2,7.82v.61h-.2l-3-2.76q-8-8.22-8.23-8.23-5.21-5.67-6.54-5.67H233a.41.41,0,0,0-.46.41v1.89q0,.36,12.46,12.87,7.4,6.9,7.41,8v.66h-.2l-.87-.66q0-.2-9.7-9.71-9.35-9.91-10.78-9.91h-1.48c-.24,0-.38.14-.41.41V153q8.43,8.43,8.43,9v.46l-2.51-1.74q-6.18-6.74-7.61-6.74h-1.48c-.24,0-.37.14-.41.41v2.15q5.67,5.67,5.67,6.54v.2q-1-.15-3.58-2.76-2.45-3-3.78-3h-1.48c-.34,0-.56.65-.66,1.94a1.35,1.35,0,0,0,.25.61q5.47,5.47,5.47,6.33v.2a.18.18,0,0,1-.2-.2q-1.28,0-4.86-4.24-1.17-1.53-5.92-3.37a20.94,20.94,0,0,0-3.17-6.33h.2l1.89,1.28h.25v-.2q-.2,0-20.95-20.9h-.2v.41l1.28,1.69v.2q-3.12-2.3-4-2.3h-3.37v.2q4,4,4,4.65t18.34,19q4.49,1.74,4.9,2.76v.41c0,.27-.15.41-.46.41v.41q8.69,8.58,8.69,9.5v.25q-1.18,0-3.63-3-3.58-3.22-3.58-3.63-5.92-5.11-5.92-5.47-.2,0-16.45-16.5-2.35-3.17-5.47-3.17,0-1.38-4.24-5.88H181v.2q4.19,4.24,6.95,5.47,0,.46-1.48.66v.2q.1.15,22.37,22.58Q220,172.54,220,173.72v.2q-1.17,0-7.56-7-3.17-2.76-3.17-3.17Q198.57,153.38,198.52,153q-7.87-7.56-13.74-13.74-3.27-.56-3.78-1.07v.41q-2.15,0-2.15-.2l-.2.46.46.61q1.89.15,1.89,1.28,0,.41,27,27.43,8.22,8,8.23,8.69v.41a14.72,14.72,0,0,1-3.58-3.17q-12.21-12.46-12.87-12.47l-18.6-18.59H181l-.46.2q-.92-2.81-5.67-6.54h-.2v5.72a38.4,38.4,0,0,0,4.44,4.24q1.89,0,1.89,1.43,13.49,13.49,13.49,14.15v.46A11.84,11.84,0,0,1,190.9,160l-9.7-9.71H181l-.46.2q0-1.12-5.47-7.2c-.24,0-.38.15-.41.46v5.88q3.88,4.45,5.67,4.45a12.73,12.73,0,0,0,2.15,3q8.43,7.82,8.43,9.3h-1.07q0-.56-8.63-8.89H181l-.46.2q0-1.07-5.47-7.15c-.24,0-.38.14-.41.41v5.93q.92,1.28,1.28,1.28,2.6,3.17,4.6,3.17,0,1.12,3.63,4.65,6.13,5.52,6.13,6.74v.41a.41.41,0,0,1-.46.46q0-.61-8.63-8.89H181l-.46.2q0-1.12-5.47-7.2c-.24,0-.38.15-.41.46V164q.92,1.28,1.28,1.28,2.6,3.17,4.6,3.17,0,1.18,3.63,4.65,6.13,5.57,6.13,6.79v.41c0,.27-.15.41-.46.41q0-.56-8.63-8.89H181l-.46.25q0-1.12-5.47-7.2c-.24,0-.38.14-.41.41v5.93q.92,1.28,1.28,1.28,2.6,3.17,4.6,3.17,0,1.18,3.63,4.65,6.13,5.52,6.13,6.74v.41a.41.41,0,0,1-.46.46q0-.61-8.63-8.89H181l-.46.2q0-1.12-5.47-7.15c-.24,0-.38.14-.41.41v5.93q.92,1.23,1.28,1.23,2.6,3.17,4.6,3.17,0,1.18,3.63,4.65,6.13,5.57,6.13,6.79v.41c0,.27-.15.41-.46.41q0-.56-8.63-8.84H181l-.46.2q0-1.12-5.47-7.2c-.24,0-.38.14-.41.41v5.93q.92,1.28,1.28,1.28,2.6,3.17,4.6,3.17,0,1.18,3.63,4.65,6.13,5.52,6.13,6.74v.41a.41.41,0,0,1-.46.46q0-.61-8.63-8.89H181l-.46.2q0-1.12-5.47-7.15c-.24,0-.38.14-.41.41v5.93q.92,1.22,1.28,1.23,2.6,3.17,4.6,3.17,0,1.18,3.63,4.65,6.13,5.57,6.13,6.79V209c0,.27-.15.41-.46.41q0-.56-8.63-8.84H181l-.46.2q0-1.12-5.47-7.2c-.24,0-.38.14-.41.41v5.93q.92,1.28,1.28,1.28,2.6,3.17,4.6,3.17,0,1.18,3.63,4.65,6.13,5.52,6.13,6.74v.41a.41.41,0,0,1-.46.46q0-.61-8.63-8.89H181l-.46.2q0-1.07-5.47-7.15c-.24,0-.38.14-.41.41v5.93q.92,1.28,1.28,1.28,2.6,3.17,4.6,3.17,0,1.12,3.63,4.6,6.13,5.57,6.13,6.79v.41c0,.27-.15.41-.46.41q0-.56-8.63-8.84H181l-.46.2q0-1.12-5.47-7.2c-.24,0-.38.15-.41.46v5.87q.92,1.28,1.28,1.28,2.6,3.17,4.6,3.17,0,1.18,3.63,4.65,6.13,5.57,6.13,6.74v.46c0,.27-.15.41-.46.41q0-.61-8.63-8.89H181l-.46.2q0-1.07-5.47-7.15c-.24,0-.38.14-.41.41v5.93q.92,1.28,1.28,1.28,2.6,3.17,4.6,3.17,0,1.12,3.63,4.65,6.13,5.52,6.13,6.74v.41c0,.27-.15.41-.46.41q0-.56-8.63-8.84H181l-.46.2q0-1.12-5.47-7.2c-.24,0-.38.15-.41.46v5.88q.92,1.28,1.28,1.28,2.6,3.17,4.6,3.17,0,1.18,3.63,4.65,6.13,5.57,6.13,6.74v.46c0,.27-.15.41-.46.41q0-.56-8.63-8.89H181l-.46.2q0-1.07-5.47-7.15c-.24,0-.38.14-.41.41v5.93q.92,1.28,1.28,1.28,2.6,3.17,4.6,3.17,0,1.12,3.63,4.65,6.13,5.52,6.13,6.74V252c0,.27-.15.41-.46.41q0-.56-8.63-8.84H181l-.46.2q0-1.12-5.47-7.2c-.24,0-.38.15-.41.46v5.88q4.08,4.65,5.87,4.65,0,1.12,8.48,9.09a.36.36,0,0,1-.41.41h-.46q-.72,0-6.95-6.33H181l-.46.26q0-1.12-5.47-7.2c-.24,0-.38.14-.41.41v5.93q3.88,4.44,5.67,4.45,1.12,2.1,1.48,2.09a.36.36,0,0,1-.41.41h-.87q-.31,0-5.47-6.08c-.24,0-.38.14-.41.41v11.39a.36.36,0,0,0,.41.41H196a.36.36,0,0,0,.41-.41V167.18l19.88,19.62h.2l20.08-19.87v8.89a32.26,32.26,0,0,1,4,3.78q2.15.56,2.15.87,0,1,4.19,5.06,5.51,4.9,5.52,6.13v.61h-.2l-.46-.2q0-.2-8.63-8.63h-.41v.41h-.2q-.66-2.5-5.72-7.41h-.2v6.33q3.88,4.44,5.67,4.44a13.67,13.67,0,0,0,2.35,3.17q7.82,7.31,7.82,8.48v.61h-.2l-.46-.2q-4-4.24-8.63-8.69h-.41V191h-.2a15.35,15.35,0,0,0-2.55-4.24q-3-2.76-3-3.17h-.41V190q3.88,4.44,5.67,4.45a13.63,13.63,0,0,0,2.35,3.17q7.82,7.26,7.82,8.43v.61h-.2l-.46-.2q-4-4.19-8.63-8.63h-.41v.41h-.2a15.35,15.35,0,0,0-2.55-4.24q-3-2.71-3-3.17h-.41v6.33q3.88,4.44,5.67,4.44a13.61,13.61,0,0,0,2.35,3.17q7.82,7.31,7.82,8.48v.61h-.2l-.46-.2q0-.2-8.63-8.69h-.41v.46h-.2a15.35,15.35,0,0,0-2.55-4.24q-3-2.76-3-3.17h-.41v6.33q3.88,4.44,5.67,4.44a13.63,13.63,0,0,0,2.35,3.17q7.82,7.26,7.82,8.43V221h-.2l-.46-.26q0-.2-8.63-8.63h-.41v.41h-.2a14.85,14.85,0,0,0-2.55-4.19q-3-2.76-3-3.17h-.41v6.33q3.88,4.39,5.67,4.39a13.63,13.63,0,0,0,2.35,3.17q7.82,7.31,7.82,8.48v.61h-.2l-.46-.2q-4-4.24-8.63-8.69h-.41v.46h-.2a15.38,15.38,0,0,0-2.55-4.24q-3-2.76-3-3.17h-.41v6.33q3.88,4.44,5.67,4.44a13.67,13.67,0,0,0,2.35,3.17q7.82,7.31,7.82,8.43v.66h-.2l-.46-.2q-4-4.24-8.63-8.69h-.41v.41h-.2a14.82,14.82,0,0,0-2.55-4.19q-3-2.76-3-3.17h-.41v6.33q3.88,4.4,5.67,4.39a12.33,12.33,0,0,0,2.35,3.17q7.82,7.31,7.82,8.48v.61h-.2l-.46-.2q-4-4.24-8.63-8.63h-.41v.41h-.2a15.38,15.38,0,0,0-2.55-4.24q-3-2.76-3-3.17h-.41V233q3.88,4.45,5.67,4.44a13.64,13.64,0,0,0,2.35,3.17q7.82,7.31,7.82,8.43v.66h-.2l-.46-.2q-4-4.24-8.63-8.69h-.41v.41h-.2a15.86,15.86,0,0,0-2.55-4.19q-3-2.76-3-3.17h-.41v6.34q3.88,4.44,5.67,4.44a13.63,13.63,0,0,0,2.35,3.17q7.82,7.26,7.82,8.43v.61h-.2l-.46-.2q0-.2-8.63-8.63h-.41v.41h-.2a15.35,15.35,0,0,0-2.55-4.24q-3-2.71-3-3.17h-.41v6.33q1.63,1.89,1.89,1.89,2.2,2.55,4,2.55,0,1.43,4,4.85a.36.36,0,0,1-.41.41h-.2q-1,0-2.76-1.89h-.41v.41h-.2a15.86,15.86,0,0,0-2.55-4.19q-3-2.76-3-3.17h-.41v6.33l2.5,2.76h-.2q-1.89-1.48-1.89-1.94h-.41v7.41a.36.36,0,0,0,.41.41H258c.31,0,.46-.14.46-.41V133.15c0-.24-.16-.38-.46-.41H253l-.41.2a10.67,10.67,0,0,1,1.69,3.17v.2a1.64,1.64,0,0,1-.82-.2l-1.28.2L249,132.74h-3.37v.2q5.21,5.06,6.54,5.06v.87l-1.07.2v.2a3.49,3.49,0,0,1,1.28,2.09V142h-.2L250,140.1q0-.82-4.19-1.69,0-1.94-4.44-5.67H239v.2Q242.86,137.24,245.37,138.41Zm7,46.69h-.2l-.46-.2q-4-4.24-8.63-8.69h-.41v.46h-.2q0-1-3.17-5.11h.2a4.19,4.19,0,0,0,2.71,1.28,13.68,13.68,0,0,0,2.35,3.17q7.82,7.3,7.82,8.43Zm0-7.2h-.2l-.46-.2q-4-4.19-8.63-8.63h-.2l-.41.2-2.15-3.83v-.2a1.91,1.91,0,0,0,.87.2q.61,0,4,4,7.2,6.64,7.2,7.82Z" fill="#fff"/><path d="M227.64,149.4h.2q0-1.48-2.5-3.58-1.08.82-1.07,1.07Q226.67,149.4,227.64,149.4Z" fill="#fff"/><path d="M224.06,153h.2q0-1.48-2.5-3.63-1.08.82-1.07,1.07A8.21,8.21,0,0,0,224.06,153Z" fill="#fff"/><path d="M220,156.19h.26q0-.82-2.15-3.17-1,.77-1,1T220,156.19Z" fill="#fff"/></svg>