<svg id="Camada_1" data-name="Camada 1" xmlns="http://www.w3.org/2000/svg" viewBox="0 0 350 350"><title>indie</title><path d="M122.69,212.08a.32.32,0,0,1-.2-.3.91.91,0,0,0,.15-.65,1.38,1.38,0,0,1,0-.65c0-.27,0-.35,0-.25s-.05,0-.05-.25-.17-.4-.5-.6a.58.58,0,0,0,0-.4.29.29,0,0,1,0-.3l-.3-.3a1.15,1.15,0,0,1-.2-.3c-.33,0-.5-.07-.5-.2-.13-.33-.27-.52-.4-.55a3.35,3.35,0,0,1-.6-.25q-.2.1-.6-.3h-.7a.36.36,0,0,0-.4,0c-.13.1-.3,0-.5-.45q0-.3-.3,0a1.89,1.89,0,0,0-1.15-.05,7.74,7.74,0,0,0-1.15.35l-3,.3q-2,.2-4.2.45t-4.2.4q-2,.15-2.9.15a1.1,1.1,0,0,0-.5.1c.13-.27.25-.52.35-.75s.22-.48.35-.75a26.64,26.64,0,0,0,.85-3.3,22,22,0,0,1,.85-3.2q.4-.9,1-2.4t1.2-3.1q.6-1.6,1.1-3.1l.8-2.4a10,10,0,0,0,.85-2.35,13.48,13.48,0,0,1,.75-2.35,23,23,0,0,0,.8-2.2q1.1-3,2.2-5.9t2.2-5.9l4.1-12.19a16.37,16.37,0,0,0,.9-2.65,13,13,0,0,1,.9-2.55q.5-1.3,1.1-3.45a8.94,8.94,0,0,0,.4-3.55,4.39,4.39,0,0,0,0-.7c0-.2-.25-.37-.65-.5a.09.09,0,0,1-.1-.1v-.2a.28.28,0,0,1-.1-.2l5.6-1q1.8-.2,3.2-.4a5.27,5.27,0,0,0,1.2-.1q.2,0,1-.1l2.5-.15,1.6-.1,1.55-.1q.85,0,2.45-.25a4.67,4.67,0,0,0,1.6-.45,7.38,7.38,0,0,1,1.5-.55l.2-.2a2.6,2.6,0,0,0,1.1-1.65q.1-.85.2-2.45a.23.23,0,0,0,.05-.25.79.79,0,0,1-.05-.25,8.51,8.51,0,0,0-.55-1.35,7.16,7.16,0,0,0-.75-1c-.27-.27-.48-.5-.65-.7a.72.72,0,0,0-.75-.2.46.46,0,0,1-.5-.3,2.83,2.83,0,0,0-2.2-.45,16.57,16.57,0,0,1-2.2.35l-3.4.5-6.9,1.1q-1.5.1-2.4.2l-2.6.3q-2.2.4-4.35.6t-4.45.5l-8.8,1.3a5.93,5.93,0,0,0-1,.1,5.84,5.84,0,0,1-1,.1,3.47,3.47,0,0,1-.75.2h-.2a.38.38,0,0,0-.15,0,3.86,3.86,0,0,1-.7.15c-.47.07-.67.08-.6,0l-.4.15a2.65,2.65,0,0,1-1-.2.78.78,0,0,0-.9.2,7.45,7.45,0,0,1-2.1.1,5.79,5.79,0,0,0-2.1.2h-.4a2,2,0,0,0-1.2.45,1.39,1.39,0,0,1-1.1.35,3.38,3.38,0,0,0-1.15.35,1.29,1.29,0,0,0-.55,1,4.48,4.48,0,0,1-.8,1.15q-.3.25-.1,1.45a5,5,0,0,1,.2,1.8,3.61,3.61,0,0,0,.5,1.8,7.19,7.19,0,0,1,.55.65,7.74,7.74,0,0,0,.55.65q.6.3,1.2.55a5.32,5.32,0,0,0,1.4.35,28.75,28.75,0,0,0,3.95-.3,26.79,26.79,0,0,0,3.85-.8c.47-.27.72-.35.75-.25s.38.08,1-.05a3.81,3.81,0,0,0,.7-.15l.2-.1a.7.7,0,0,1,.3,0,6,6,0,0,0,.8-.1l3.35-.4a29.73,29.73,0,0,0,3.45-.6,3.23,3.23,0,0,1,.5,0,1.55,1.55,0,0,0,.8-.15l-.1.2.4.1-.4,1.4a4.64,4.64,0,0,1-.6,1.3,52.88,52.88,0,0,0-1.9,5.15,53.17,53.17,0,0,1-1.9,5.15q-.3.8-.7,2.1l-.85,2.75q-.45,1.45-.9,2.75a18,18,0,0,1-.85,2.1,36.41,36.41,0,0,0-1.7,4.5,43,43,0,0,1-1.7,4.6,24.61,24.61,0,0,0-1.15,3.55,18.63,18.63,0,0,1-1.25,3.55q-.5,1.4-.85,2.7a14.58,14.58,0,0,1-1,2.7q-.3,1-.85,2.5t-1.15,3q-.6,1.55-1.1,3t-.8,2.35a7.55,7.55,0,0,0-.45,1.4q-.25,1-.5,2.2t-.45,2.35q-.2,1.15-.3,1.85a.68.68,0,0,0-.3,0,.69.69,0,0,1-.3.05,2.25,2.25,0,0,1-1,.15,3.6,3.6,0,0,0-1,0,2.42,2.42,0,0,1-1.1.25q-.8,0-1.6,0c-.53,0-1.06,0-1.6,0a5,5,0,0,0-1.1.15,4.28,4.28,0,0,1-1.3,0,2.47,2.47,0,0,0-1.3.2q-1.1.1-2.35.1H75a4.88,4.88,0,0,1-2.1.4,1.31,1.31,0,0,0-1,.3,1.94,1.94,0,0,0-.8,1.2.65.65,0,0,1-.3.3c-.13.07-.2.13-.2.2a7.85,7.85,0,0,0-.25,1.1A6,6,0,0,1,70,215a4.82,4.82,0,0,0,.4,2.3l.8,2a2.29,2.29,0,0,0,1,.9c.27.07.6.13,1,.2l.5.1,3.3-.4a3.5,3.5,0,0,0,.75-.15,11.37,11.37,0,0,1,1.15-.25l1.15-.2a6.16,6.16,0,0,1,.65-.1,8.63,8.63,0,0,0,1.6-.2l2.1-.4,2-.4a7.6,7.6,0,0,1,1.45-.2,12.81,12.81,0,0,0,2.6-.25,11.22,11.22,0,0,1,2.3-.25q1.6-.2,3-.35t3-.35q.9,0,2.9-.1t4.2-.25q2.2-.15,4.2-.25a19.51,19.51,0,0,0,2.9-.3,12.56,12.56,0,0,1,2.15-.3c.43,0,.85,0,1.25,0l1.5.1a21.23,21.23,0,0,0,2.9-.15l.4-.2a3,3,0,0,0,.45-.55.79.79,0,0,1,.45-.35.94.94,0,0,1,0-.85,1.69,1.69,0,0,0,.2-.85c.07,0,.13-.08.2-.25a1.29,1.29,0,0,1,.3-.45C122.89,212.21,122.82,212.15,122.69,212.08Z" fill="#fff"/><path d="M221.63,158.91a3.62,3.62,0,0,0,.75,1.35,2.52,2.52,0,0,0,1.35.85,2.63,2.63,0,0,0,1.25.55,6.34,6.34,0,0,0,1.35,0,2.48,2.48,0,0,0,1.7-.2,7.88,7.88,0,0,1,1.6-.6,10,10,0,0,0,1.25-1,2.85,2.85,0,0,0,.75-1.35,1.46,1.46,0,0,1,.1-.55c.07-.17.13-.32.2-.45a5.48,5.48,0,0,0-.65-3.1,3.71,3.71,0,0,0-2.55-2.2,8.52,8.52,0,0,0-2.3.1q-1,.2-2.1.5a1.09,1.09,0,0,0-.4.2.41.41,0,0,1-.3.1c-.4.33-.77.65-1.1.95a2.58,2.58,0,0,0-.7.95,2.39,2.39,0,0,0-.5,1.4,7.68,7.68,0,0,1,.1,1.25A4.84,4.84,0,0,0,221.63,158.91Z" fill="#fff"/><path d="M278,177.3l2-4.3a.67.67,0,0,1-.3,0l-.3-.15a.58.58,0,0,0,.1-.55c-.07-.17-.13-.32-.2-.45l-.2-.2a.28.28,0,0,1-.1-.2q-.2-.9-.9-.7a2.3,2.3,0,0,0-.9.4c-.13-.13-.23-.2-.3-.2a1.12,1.12,0,0,1-.8-.1c-.13-.13-.25-.15-.35,0a1.31,1.31,0,0,0-.25.35,1.77,1.77,0,0,0-.15.45c0,.17-.05.22-.05.15a1,1,0,0,0-.85.15,9.58,9.58,0,0,0-.65.75l-.8,1.1q-.5.7-1,1.4l-1,1.35a10.34,10.34,0,0,1-.8.95q-1.3,1.5-3,3.6t-3.65,4.25q-1.95,2.15-4,4.2a30.58,30.58,0,0,1-4,3.45,43.57,43.57,0,0,1-8.4,4.6,6.45,6.45,0,0,1-1.75.2h-1.65a8.81,8.81,0,0,1-1.7-.4,1.53,1.53,0,0,1-1.1-1.1,8.77,8.77,0,0,1-.4-2.6,17.37,17.37,0,0,1,.75-4.65,30.11,30.11,0,0,1,1.75-4.75h.2a2.44,2.44,0,0,1,.95.75,1.7,1.7,0,0,0,1,.65c.13.13.18.22.15.25s0,0,.15,0a.71.71,0,0,1,.3,0,.43.43,0,0,0,.2.05,9.93,9.93,0,0,0,3-.05,6.9,6.9,0,0,0,2.25-.95,29.4,29.4,0,0,0,7.95-7.75,50.43,50.43,0,0,0,5-9.94,1.15,1.15,0,0,1,.4-.8,21.31,21.31,0,0,0,.4-2.5,6.9,6.9,0,0,0-.2-2.3,6.69,6.69,0,0,0-1.7-3.9,2.6,2.6,0,0,0-1.3-1.1,3.48,3.48,0,0,0-2.25-1,12.48,12.48,0,0,0-2.65-.1,21.78,21.78,0,0,0-7.6,3.4,33,33,0,0,0-6.25,5.8,49.94,49.94,0,0,0-5.15,7.45c-1.37,2.4-2.61,4.88-3.76,7.42l-1.79,2.48q-1.25,1.75-2.5,3.3t-1.95,2.25q-1.6,1.7-3.9,3.9a27.74,27.74,0,0,1-4.2,3.4q-.8.3-.9.5a2.38,2.38,0,0,1-.9.6,1.55,1.55,0,0,1-1.65-.1,1.49,1.49,0,0,1-.35-1.5,22.38,22.38,0,0,1,1.9-5.95q1.4-2.95,3-6t3.2-6.3a32.44,32.44,0,0,0,2.35-6.75,13.22,13.22,0,0,1,.3-1.6,2.64,2.64,0,0,0-.1-1.6c-.2-.33-.42-.67-.65-1a4.84,4.84,0,0,1-.55-1,.85.85,0,0,0-.7-.5,6.68,6.68,0,0,1-.9-.3,7.45,7.45,0,0,0-.9-.3,5.57,5.57,0,0,1-1,.2H221a3.14,3.14,0,0,0-.5.05,1.55,1.55,0,0,0-.6.25,4.23,4.23,0,0,1-.4.6l-.6.6a3.13,3.13,0,0,0-.6.8,30.12,30.12,0,0,0-2.25,3.5,50.51,50.51,0,0,0-2.45,5.4l-1.7,3.8-.24.54-1.31,2.16q-1.15,1.9-2.5,3.95t-2.65,3.85a22.82,22.82,0,0,1-2.1,2.6,25.27,25.27,0,0,1-2.15,2.1,11.93,11.93,0,0,1-2.45,1.6,3.49,3.49,0,0,1-.9.3,2,2,0,0,1-.9,0,1.41,1.41,0,0,1-1.1-1.3,1.94,1.94,0,0,1-.15-.95,8.77,8.77,0,0,0,0-.95,17.31,17.31,0,0,1,.3-2.75q.3-1.75.7-3.6t.8-3.55q.4-1.7.6-2.7t.6-2.3a23,23,0,0,1,.7-2.3,20,20,0,0,1,.65-2.4l.65-1.85q.3-.85.6-1.6a10.75,10.75,0,0,0,.5-1.65q.3-.8.65-1.55t.65-1.55q.8-2.2,1.7-4.3t1.8-4.3q.6-1.4,1.25-2.8t1.25-2.9a9.41,9.41,0,0,1,.45-.95,2.2,2.2,0,0,0,.2-.4l.15-.45c.07-.2.2-.57.4-1.1a4.43,4.43,0,0,1,.6-1.4,4.49,4.49,0,0,0,.6-1.4q.4-1,.9-2a7.8,7.8,0,0,0,.7-2.1,2.86,2.86,0,0,1,.75-1.25,3,3,0,0,0,.75-1.15,4,4,0,0,1,.8-1.55,1.37,1.37,0,0,0,.1-1.65v-.2a1.86,1.86,0,0,0-.3-1.45,3.49,3.49,0,0,1-.5-1.45,6.83,6.83,0,0,1-.75-.65,4.3,4.3,0,0,1-.55-.65c-.27-.47-.53-.7-.8-.7a10.5,10.5,0,0,1-1.2-.1,1.33,1.33,0,0,0-.8,0,.73.73,0,0,1-.7,0,.84.84,0,0,0-.8,0,3.32,3.32,0,0,0-.5.4q-.8.8-1.5,1.45a3,3,0,0,0-.9,1.75,3,3,0,0,0-.3.55,1,1,0,0,1-.4.45,1.82,1.82,0,0,0-.65.95,9.81,9.81,0,0,1-.35,1q-.5.8-.95,1.65a7.33,7.33,0,0,0-.65,1.65q-.9,1.9-1.5,3.25t-1.15,2.55q-.55,1.2-1.15,2.55t-1.4,3.35q-.7,1.7-1.8,4.1t-1.9,4.1a.16.16,0,0,1-.1.15.16.16,0,0,0-.1.15,3.38,3.38,0,0,1-.7-1.15,9,9,0,0,0-.6-1.25,7.36,7.36,0,0,0-2.8-2.2c-.13,0-.22,0-.25,0a.4.4,0,0,0-.25,0c-.6-.07-1.18-.15-1.75-.25a3.53,3.53,0,0,0-1.75.15l-1.65.4a7.66,7.66,0,0,0-1.65.6,40.4,40.4,0,0,0-3.45,2.15,15.28,15.28,0,0,0-3,2.85q-1.4,1.7-2.75,3.4a41.19,41.19,0,0,0-2.55,3.6l-2.9,4.9q-.7,1.3-1.25,2.55T165.26,178h0l-.09.14q-.9,1.35-1.8,2.6t-1.5,2.15l-5,6.1-1.45,1.7q-1,1.1-2,2.3t-2.2,2.2a8.79,8.79,0,0,1-1.7,1.3,3,3,0,0,1-1.75.6.93.93,0,0,1-.75-.6,2.47,2.47,0,0,1-.1-1.25,7.18,7.18,0,0,1,.3-1.35,50.39,50.39,0,0,1,2.9-8.45q1.6-3.45,3.4-6.95a28,28,0,0,1,1.3-2.65q.7-1.25,1.7-2.95t1.9-3.75a13.68,13.68,0,0,0,1.2-4.75v-1.3a5.76,5.76,0,0,0-1-2.75,19.38,19.38,0,0,0-1.85-2.15,2.79,2.79,0,0,0-1.75-.8q-1.25-.2-2-.4a4.2,4.2,0,0,0-1.5-.1q-.5.1-1.3.3a5.31,5.31,0,0,0-1.35.45q-.45.25-2.45,1.45a14.1,14.1,0,0,0-1.8,1.3q-1.1.9-2.3,2t-2.4,2.45a32.51,32.51,0,0,0-2.1,2.5,4.28,4.28,0,0,0-.35.45l-.55.75c-.2.27-.38.5-.55.7s-.28.3-.35.3a.76.76,0,0,1,.1-.3,4.05,4.05,0,0,1,.2-.7c.07-.27.17-.6.3-1a10.06,10.06,0,0,1,.35-1.15q.35-1,.8-2.3t.8-2.3a10.23,10.23,0,0,0,.35-1.15q-.3-3.8-3.7-4.3-.6-.1-1.35-.15a2.88,2.88,0,0,0-1.25.15,5.09,5.09,0,0,0-3,3.1,6.8,6.8,0,0,1-.55,1.8q-.35.7-.85,2-.3,1.3-.75,2.65t-.95,2.55q-1,2.7-1.6,4.6t-1.1,3.65q-.5,1.75-1.1,3.7t-1.6,4.75l-3,8.7q-.4,1.1-.75,2.15a15.77,15.77,0,0,0-.55,2.15,2.19,2.19,0,0,1-.3.8.5.5,0,0,0-.1.5,4.87,4.87,0,0,1,0,1.4,1.42,1.42,0,0,0,.1.85,3.89,3.89,0,0,0,.4.95q.5.5.4.7c-.07.13,0,.37.2.7a3.32,3.32,0,0,0,2.7,1.4,9.89,9.89,0,0,0,3.3-.6q.7-.2.65-.7c0-.33.18-.67.65-1,.27-.27.47-.4.6-.4s.27-.27.4-.8.08-.95.25-1,.32-.42.45-.95a19.65,19.65,0,0,1,.55-2.25,7.71,7.71,0,0,1,.95-2c.13-.47.23-.85.3-1.15a7.34,7.34,0,0,1,.2-.75,5.21,5.21,0,0,1,.3-.7,9.62,9.62,0,0,1,.6-1,6.94,6.94,0,0,0,.3-.75s0,0,0,.05l.35-.8a7.81,7.81,0,0,0,.75-1.9,6,6,0,0,1,.95-2q.9-1.9,2-3.75a34.19,34.19,0,0,1,2.7-3.85l1.2-1.5q.8-1,1.7-2t1.75-1.95q.85-.9,1.25-1.3a30.21,30.21,0,0,1,4.65-4q1.55-.95,1.9-.65t-.2,1.55a19.36,19.36,0,0,1-1.45,2.65,49.06,49.06,0,0,0-3.75,6.4,61.81,61.81,0,0,0-2.95,7.4q-.8,2.3-1.45,4.35a25.29,25.29,0,0,0-.95,4.25,12.75,12.75,0,0,0,0,4.5,14.77,14.77,0,0,0,.6,2.6,3.85,3.85,0,0,0,1.6,2l1.1.9a4.08,4.08,0,0,0,2,1,12.86,12.86,0,0,0,2.3.2,11.63,11.63,0,0,0,1.4-.1l1.7-.2a8.11,8.11,0,0,0,1.65-.35,6.4,6.4,0,0,0,1.25-.55q1.1-.8,2-1.4a21.58,21.58,0,0,0,1.95-1.4,5.72,5.72,0,0,0,.4-.45,1.06,1.06,0,0,1,.5-.35l.7-.35q.3-.15.4-.75a1.14,1.14,0,0,1,.6-.4c1.11-1,2.15-2.12,3.15-3.23,0,.28,0,.55.05.83a11.38,11.38,0,0,0,.5,2.65q.4,1.25.9,2.45a9.19,9.19,0,0,0,1.1,1.4,12.63,12.63,0,0,1,1.1,1.3.9.9,0,0,0,.5.25,1.76,1.76,0,0,1,.5.15l1,.3a11.55,11.55,0,0,0,3.3.15,5.82,5.82,0,0,0,3-.95q1.1-.5,2.15-1a12.83,12.83,0,0,0,1.95-1.25q1.3-1,2.45-2t2.25-2.15a26.07,26.07,0,0,0,2.85-2.9,33.1,33.1,0,0,0,2.35-3.2c.07-.07.1-.12.1-.15s.07-.12.2-.25a25.54,25.54,0,0,0,0,6.4,8.1,8.1,0,0,0,1.5,4.1,7.68,7.68,0,0,0,3.2,2.9,9,9,0,0,0,3.75.75,11.57,11.57,0,0,0,3.55-.65,13.39,13.39,0,0,0,4-2.4c.84-.76,1.82-1.66,2.9-2.69a7.82,7.82,0,0,0,1.69,3.84q1.55,1.85,5.15,1.95a12.6,12.6,0,0,0,4.4-.6,21.48,21.48,0,0,0,4.2-1.85,35.92,35.92,0,0,0,3.9-2.6q1.9-1.45,3.6-2.85,1-1.1,1.45-1.65l.17-.21a10.37,10.37,0,0,0,.48,2.26,1.64,1.64,0,0,1,.25.75,2.52,2.52,0,0,0,.25.85,13.19,13.19,0,0,0,1.2,2.1,9.3,9.3,0,0,0,1.5,1.7,6.77,6.77,0,0,0,2,1.35,9.6,9.6,0,0,0,2.4.75,15.53,15.53,0,0,0,2.6.3q1.8.1,2.5.1a21.32,21.32,0,0,0,9.1-2.65,48.79,48.79,0,0,0,8.84-6.1,72.07,72.07,0,0,0,7.95-8q3.7-4.35,6.4-8.25a13.85,13.85,0,0,0,1.8-3.3c.07-.2,0-.3-.1-.3S278,177.37,278,177.3Zm-32.38-.95a1.48,1.48,0,0,0,.1-.55,1.73,1.73,0,0,0,.35-.75,1.26,1.26,0,0,1,.45-.75,21.45,21.45,0,0,0,1.25-1.8,13.49,13.49,0,0,1,.75-1.15q.4-.55,1.1-1.45t2.4-2.7a10,10,0,0,1,1.4-1.35q.6-.45,1.7-1.15a1.72,1.72,0,0,1,1-.2.75.75,0,0,1,.5.5,2.28,2.28,0,0,1,.15.8,2.23,2.23,0,0,1-.1.7,3.84,3.84,0,0,0-.55,1.2,5.1,5.1,0,0,1-.65,1.4q-1.6,2.6-3.6,5.3a10.66,10.66,0,0,1-5.1,3.8h-.3a.69.69,0,0,0-.3.05.44.44,0,0,1-.2,0c-.13-.2-.22-.3-.25-.3a.14.14,0,0,0-.1.05s0,0,0,0a4.5,4.5,0,0,0-.1-.45,3,3,0,0,1,.05-.5.61.61,0,0,1,0-.17A1,1,0,0,1,245.62,176.35Zm-58.77.8a20.41,20.41,0,0,1-2.8,4.85,1.26,1.26,0,0,0-.5.75,3.68,3.68,0,0,1-.3.85q-.8,1.2-2.3,3.1t-2.6,3.2q-3.9,4.1-5.65,4.55t-2.1-1.15a10.23,10.23,0,0,1,.3-4.35q.65-2.75,1.45-5.15.3-.8.85-2t1.15-2.4q.6-1.2,1.15-2.35t.95-1.95a5.36,5.36,0,0,1,.85-1.6q.65-.9,1.45-1.85t1.55-1.8q.75-.85,1.25-1.35a.74.74,0,0,1,.4-.65,4.56,4.56,0,0,0,.8-.65q1.2-.7,2.35-1.4a4.57,4.57,0,0,1,2-.75,1.75,1.75,0,0,1,1.55.85,6.22,6.22,0,0,1,.75,3.2,3.72,3.72,0,0,1,0,1,2.21,2.21,0,0,0,.15,1Q188.05,174.3,186.85,177.15Zm90.35-5.85h.1C277.23,171.44,277.2,171.44,277.2,171.3Z" fill="#fff"/><path d="M245.61,176.93s0,0,0,.07S245.61,176.92,245.61,176.93Z" fill="#fff"/></svg>