<svg id="Camada_1" data-name="Camada 1" xmlns="http://www.w3.org/2000/svg" viewBox="0 0 350 350"><title>pop</title><path d="M105.65,138.34H85.22A17,17,0,0,0,68,155.14v40.63a16.95,16.95,0,0,0,33.82,1.57h3a29.51,29.51,0,1,0,.84-59Zm-2.18,33.59a2.86,2.86,0,0,1-1.57-.54v-7.15a4.42,4.42,0,0,1,1.57-.19,3.94,3.94,0,0,1,4.06,3.83A4.13,4.13,0,0,1,103.47,171.94Z" fill="#fff"/><path d="M174.29,137.31A37.63,37.63,0,1,0,212.13,175,37.91,37.91,0,0,0,174.29,137.31Zm0,41.78a4.09,4.09,0,0,1-3.75-4.06,3.85,3.85,0,0,1,3.75-3.94,3.91,3.91,0,0,1,4.06,3.94A4.16,4.16,0,0,1,174.29,179.09Z" fill="#fff"/><path d="M252.58,138.34H232.14a17,17,0,0,0-17.22,16.8v40.63a16.95,16.95,0,0,0,33.82,1.57h3a29.51,29.51,0,1,0,.84-59Zm-2.18,33.59a2.87,2.87,0,0,1-1.57-.54v-7.15a4.42,4.42,0,0,1,1.57-.19,3.94,3.94,0,0,1,4.06,3.83A4.16,4.16,0,0,1,250.4,171.94Z" fill="#fff"/></svg>