<svg id="Camada_1" data-name="Camada 1" xmlns="http://www.w3.org/2000/svg" viewBox="0 0 350 350"><title>pop-rock</title><path d="M275.18,187.22c1.35-2.11,1.13-2.51-1.35-2.54-3.65,0-7.31,0-11,0a3.59,3.59,0,0,0-3.41,2c-4.45,7.2-9,14.37-13.5,21.53-.35.56-.47,1.43-1.55,1.51,0-7.45,0-14.84,0-22.22,0-2-.73-2.87-2.77-2.81-3,.09-6,.13-9,0-2.32-.11-3,.82-3,3.07.12,5.42,0,10.85,0,17-5-12.74-13.49-20.2-26.64-20.94s-22.47,5.62-29,17.35c-.57-2.73-.52-5-1.33-7.06-2.89-7.48-9.3-9.84-16.34-10.81a92.9,92.9,0,0,0-24.59,0c-5.85.75-11.39,2.42-15.1,7.62-1.39,2-1.8,4.31-2.71,6.65C110,188.54,106.51,186,97,185c-6.7-.7-13.44-.19-20.16-.29-3.46-.05-3.51.05-3.51,3.44q0,25,0,50.08c0,.58,0,1.16,0,1.74-.08,1.59.67,2.24,2.24,2.22,3.24,0,6.48-.08,9.72,0,1.93.06,2.7-.67,2.67-2.6-.07-3.9,0-7.81,0-11.71,0-.66-.36-1.48.55-2.08,2.83,4.74,5.69,9.4,8.41,14.15a4,4,0,0,0,4,2.25c4-.11,8,0,12-.05.79,0,1.86.39,2.31-.43.54-1-.53-1.63-1-2.33-3.54-5-7.13-10-10.67-15-.53-.75-1.52-1.65.13-2.33,6.08-2.51,9.54-7.18,11-14.09.3.94.44,1.3.54,1.67,2.52,9.94,7.64,18.52,13.95,26.46a33.39,33.39,0,0,0,9.46,8,9.8,9.8,0,0,0,10.17.31,37.21,37.21,0,0,0,12.92-11.83,85,85,0,0,0,10.15-19c1.06,17.46,12.57,26.74,22.6,28.91,7.48,1.62,14.71.92,21.48-2.85s11-9.73,13.72-16.93c.15,5.66.21,11.22.12,16.78,0,2.07.73,2.81,2.77,2.74,3.07-.11,6.15-.12,9.22,0,2.11.09,2.75-.81,2.72-2.8-.07-6,0-12,0-17.94,0-.65-.29-1.43.47-2.08.3.44.54.77.76,1.12,4,6.53,7.94,13.05,11.84,19.62a3.66,3.66,0,0,0,3.6,2.07c4.15-.09,8.3-.07,12.46,0,2.08,0,2.28-.68,1.21-2.32-5.1-7.78-10.07-15.64-15.28-23.34-1.29-1.91-1.27-3.18,0-5.05C264.78,203.44,270,195.32,275.18,187.22ZM99.33,207.69a5.37,5.37,0,0,1-3.71,2.67,29.21,29.21,0,0,1-4.91.67c-2.21.15-3-.71-2.82-2.86.11-1.15,0-2.32,0-3.48a4.19,4.19,0,0,1,0-1c.45-1.79-1.2-4.22,1.18-5.36s8.23.27,9.81,2.09S100.58,205.36,99.33,207.69Zm50.34-.57c.91,0,1.82,0,2.73.08a4.91,4.91,0,0,1,.94.41l-19.91,18.57-.46-.38c2.46-4,4.94-8,7.37-12,.49-.81,1.57-1.62,1-2.62s-1.81-.47-2.77-.58-1.81.24-3-.54l18.3-17,.42.34q-3.1,5.48-6.19,11C146.83,206.71,147,207,149.67,207.12Zm80.1,11.3c0,1.48-.55,2.12-2,2.08-2-.06-4,0-6,0a13.06,13.06,0,0,1-1.74,0,8.2,8.2,0,0,0-8.32,3.39c-3.4,4.39-8.37,5.6-13.7,4.2-5.62-1.48-9.09-5.4-10.54-10.92-1.52-5.75-.27-11,4.29-14.94,4.79-4.13,10.32-5.11,16.23-2.3a13.17,13.17,0,0,1,5.43,5,4,4,0,0,0,3.92,2c3.32-.12,6.64,0,10-.06,1.77-.05,2.59.46,2.52,2.38C229.67,212.27,229.71,215.34,229.77,218.41Z" fill="#fff"/><path d="M74.69,178.74H92a1.69,1.69,0,0,0,1.69-1.69V161h7.62c20.11,0,32.6-10.77,32.6-28.1,0-16.51-12.23-27.18-31.17-27.18h-28A1.69,1.69,0,0,0,73,107.46v69.6A1.69,1.69,0,0,0,74.69,178.74Zm19-54.35h8.64c6.72,0,10.9,3.27,10.9,8.54,0,5.9-4.18,9.57-10.9,9.57H93.68Z" fill="#fff"/><path d="M174.64,180.18a38.85,38.85,0,0,0,27.57-11,38.26,38.26,0,0,0,0-53.84,38.85,38.85,0,0,0-27.57-11c-21.61,0-38.54,16.66-38.54,37.92S153,180.18,174.64,180.18ZM157,142.25c0-10.36,7.75-18.47,17.65-18.47s17.65,8.11,17.65,18.47-7.75,18.47-17.65,18.47S157,152.61,157,142.25Z" fill="#fff"/><path d="M217.79,178.74h17.3a1.69,1.69,0,0,0,1.69-1.69V161h7.62c20.11,0,32.6-10.77,32.6-28.1,0-16.51-12.23-27.18-31.17-27.18h-28a1.69,1.69,0,0,0-1.69,1.69v69.6A1.69,1.69,0,0,0,217.79,178.74Zm19-36.24V124.4h8.64c6.72,0,10.9,3.27,10.9,8.54,0,5.9-4.18,9.57-10.9,9.57Z" fill="#fff"/></svg>