<svg id="Camada_1" data-name="Camada 1" xmlns="http://www.w3.org/2000/svg" viewBox="0 0 350 350"><title>punk-rock</title><path d="M241.93,196.55c-1.23-3.18-2.5-6.35-3.72-9.54a9.5,9.5,0,0,1-.75-2.79,52.56,52.56,0,0,0-2.82-13.88,53.6,53.6,0,0,0-7.17-13.75,51.69,51.69,0,0,0-8.44-9.17,53.85,53.85,0,0,0-15.43-9.29,52.45,52.45,0,0,0-12.88-3.24,53.19,53.19,0,0,0-9.63-.28,56.51,56.51,0,0,0-9.74,1.47,46.45,46.45,0,0,0-8.69,3,53.53,53.53,0,0,0-18.46,13.6,53.61,53.61,0,0,0-6.8,9.73,50.88,50.88,0,0,0-4.71,11.94,54.59,54.59,0,0,0-.53,24.73,52.56,52.56,0,0,0,10.53,22.07,51.33,51.33,0,0,0,7.6,7.7,1.93,1.93,0,0,1,.66,1.66q0,9.62,0,19.24,0,5.61,0,11.23c0,1,.07,1.1,1.09,1.33,4.45,1,8.9,2,13.35,3,5,1.1,9.93,2.17,14.9,3.26l12.78,2.82,12.56,2.79c.93.2,1.18,0,1.19-1.16,0-3.74,0-7.49,0-11.23s0-7.44,0-11.15c0-1.13,0-1,1.11-1.15s2.14.2,3.22-.06a9.22,9.22,0,0,1,2.08.09c3.45,0,6.9,0,10.35,0a11.41,11.41,0,0,0,11.11-10.26c.28-2.76.1-5.53.1-8.3a39,39,0,0,0-.1-4.85,15.21,15.21,0,0,1,.05-2.36,9.53,9.53,0,0,0,0-2c-.15-.89.11-1.2,1-1.44,2.38-.67,4.62-1.73,6.93-2.58a6.6,6.6,0,0,0,3.17-2.52,7.15,7.15,0,0,0,.58-7.12C244.85,204.24,243.41,200.39,241.93,196.55Zm-60.51,26.31c-.58,3.51-3.75,6.17-8.51,6.15a6.9,6.9,0,0,1-5.34-3.52,7.49,7.49,0,0,1,2.05-10.29c.47-.36.76-.25,1,.23.32.65.63,1.3,1,1.94a.86.86,0,0,1-.25,1.27,3.76,3.76,0,0,0-.19,5.46,3.86,3.86,0,0,0,6.5-1.45,3.75,3.75,0,0,0-1.08-4.15c-.39-.37-.5-.67-.21-1.15a21.74,21.74,0,0,0,1-2c.21-.46.43-.49.85-.22A7.59,7.59,0,0,1,181.42,222.87Z" fill="#fff"/><path d="M278,121.64c-.14-.26-.45-.2-.69-.14q-1.46.33-2.91.72c-.45.12-6.95,1.78-9,2.3-4.23,1.05-8.45,2.18-12.68,3.26-3.31.85-6.62,1.68-9.94,2.51l-5.87,1.49c-.18,0-.39.26-.54,0s0-.38.15-.55c1.58-2.48,3.17-5,4.75-7.44q2.89-4.55,5.75-9.11l5.11-8.09,8.68-13.71a1.92,1.92,0,0,0,.19-.32c.1-.25.28-.53,0-.76s-.53,0-.76.1c-1.25.78-2.48,1.58-3.73,2.35-3.14,1.93-6.19,4-9.37,5.86-.42.24-.83.54-1.24.82a1.94,1.94,0,0,1-1.24.45c-.17,0-.38,0-.15.25.1.12-.06.32-.19.35-1,.25-1.57,1.08-2.44,1.52s-1.74,1.06-2.61,1.6c-2.07,1.3-4.14,2.59-6.2,3.9l-7.38,4.71-4.1,2.61a.6.6,0,0,1-.59.14,22.38,22.38,0,0,1,.79-3.24c1.4-5.54,2.83-11.07,4.25-16.6.72-2.82,1.5-5.63,2.16-8.47.46-2,1.11-3.94,1.56-5.92.68-3,1.57-6,2.23-9a9,9,0,0,0,.44-1.74c0-.27,0-.59-.27-.72s-.43.19-.58.37c-1.41,1.68-2.84,3.34-4.22,5-2.73,3.39-5.55,6.71-8.36,10-2.54,3-5,6.06-7.56,9.09l-8.07,9.73a7.27,7.27,0,0,0-1,1.39c-.07.15-.2.34-.38.31s-.15-.28-.16-.44c-.48-4.63-.67-9.27-1-13.91-.21-3.16-.4-6.32-.61-9.47-.28-4-.64-7.95-.84-11.93-.14-2.76-.39-5.52-.5-8.28,0-.8-.09-1.59-.14-2.39,0-.25,0-.54-.32-.62s-.37.2-.5.37a12.66,12.66,0,0,0-1.3,3c-1.77,4.32-3.44,8.67-5.16,13-1.36,3.43-2.75,6.85-4.11,10.28-.85,2.13-1.65,4.28-2.5,6.41-1.34,3.38-2.71,6.75-4.06,10.13-.05.14-.08.34-.24.35s-.28-.25-.34-.42L178,97.33c-1.69-4.24-3.41-8.46-5.06-12.72-.72-1.88-1.41-3.78-2.18-5.64-1.78-4.33-3.48-8.69-5.25-13-.77-1.89-1.5-3.81-2.24-5.71-.08-.2-.12-.49-.39-.49s-.37.32-.42.55c-.11.54-.2,1.08-.26,1.62-.25,2.17-.24,4.36-.41,6.55-.34,4.28-.52,8.58-.8,12.87-.26,4-.59,8.05-.86,12.08-.18,2.76-.31,5.52-.48,8.28-.09,1.49-.21,3-.32,4.47a.7.7,0,0,1-.26.59c-.45-.52-.9-1-1.34-1.57L149.22,95,140.28,84.2l-10.74-13c-.23-.28-.5-.6-.87-.4s-.13.58-.05.89q1.9,7.5,3.81,15c1.25,4.88,2.54,9.75,3.78,14.63.86,3.38,1.68,6.77,2.53,10.16.33,1.31.7,2.6,1,3.91.08.32.34.77,0,1s-.63-.2-.9-.38c-2.15-1.35-4.28-2.74-6.43-4.1-2.51-1.59-5-3.14-7.54-4.73-3.22-2-6.43-4.1-9.66-6.13q-5.34-3.37-10.7-6.71L100.79,92c-.28-.18-.59-.39-.88-.09s0,.59.2.85q3.69,5.85,7.38,11.7c1.61,2.55,3.29,5.06,4.84,7.65a33,33,0,0,1,2.83,4.82c.13.33.53.37.75.67.57.79.9,1.72,1.44,2.52.74,1.11,1.46,2.23,2.19,3.35.11.16.3.3.35.47a8.41,8.41,0,0,0,1.51,2.42c.73,1.12,1.45,2.26,2.09,3.43a11.8,11.8,0,0,1,1.25,2.15c-.72-.16-1.38-.29-2-.46q-9.5-2.42-19-4.85C98.8,125.33,93.88,124,89,122.77c-3-.77-6-1.51-9-2.26a2,2,0,0,0-.59,0c-.2,0-.41.06-.48.29s.12.31.25.42l2.77,2.29,14,11.66,14.5,12q1.93,1.6,3.84,3.22c.18.15.48.29.39.58s-.39.16-.6.18l-6,.43c-3.5.24-7,.5-10.51.72-2.78.18-5.57.31-8.36.49-3.18.21-6.36.47-9.54.69-1.86.13-3.73.22-5.6.33l-5.22.32c-.31,0-.78,0-.83.33s.36.61.71.75l4.8,1.91,19.95,7.95c2.8,1.11,5.62,2.2,8.42,3.31,3.22,1.28,6.43,2.57,9.67,3.88-.1.34-.39.38-.63.48L102.68,176l-10.63,4.22-10.42,4.14-13.2,5.27c-.19.08-.51.1-.48.39s.34.4.61.47a16.11,16.11,0,0,0,2.9.3c2.68.21,5.37.33,8.06.5s5.32.42,8,.53,5.16.42,7.76.53c3.33.14,6.66.45,10,.68,1.94.13,3.88.24,5.82.36l3.14.17c.22,0,.52,0,.6.21s-.2.37-.37.5c-2.48,1.9-4.85,3.92-7.22,5.94-4.67,4-9.43,7.83-14.12,11.76q-6.76,5.67-13.56,11.3a2,2,0,0,0-.28.24c-.17.21-.42.43-.24.72s.44.15.69.09l12.11-3.08c4.4-1.11,8.8-2.21,13.2-3.34,3.31-.85,6.61-1.72,9.92-2.58,1.91-.5,3.81-1,5.72-1.48,1.18-.29,2.34-.61,3.49-1,.17-.06.34-.13.49,0a.38.38,0,0,1,0,.49,6.1,6.1,0,0,1-.43.7c-2,2.7-3.61,5.61-5.42,8.41-2.07,3.2-4.1,6.43-6.13,9.66-2.69,4.29-5.35,8.59-8,12.88-1.46,2.32-3,4.62-4.42,6.94-.2.32-.61.74-.28,1.05s.74-.1,1.06-.3c3-1.86,5.95-3.74,8.92-5.61l10.38-6.51c2.19-1.38,4.37-2.79,6.56-4.17,2.7-1.7,5.41-3.37,8.12-5.06,1.71-1.07,3.43-2.13,5.13-3.21,1-.61,1-.88.22-1.74a45.16,45.16,0,0,1-4.51-5.76,59.26,59.26,0,0,1-6.69-13.4,64.79,64.79,0,0,1-2.63-10.66,56.9,56.9,0,0,1-.64-9.24,58.55,58.55,0,0,1,2-14.78,57.67,57.67,0,0,1,6-14.29,58.41,58.41,0,0,1,8.82-11.47,8.25,8.25,0,0,1,1.26-1,7.88,7.88,0,0,0,.9-1,44.68,44.68,0,0,1,5.56-4.54,60.38,60.38,0,0,1,12.51-6.79,57.31,57.31,0,0,1,13.35-3.49,59.15,59.15,0,0,1,14-.24,57.92,57.92,0,0,1,28.31,10.84,59.37,59.37,0,0,1,8,7,54.56,54.56,0,0,1,4.82,5.81c.65.92.89,1.08,1.88.35,2.95-2.18,6-4.23,9-6.35,3.63-2.56,7.28-5.12,10.89-7.72,2.49-1.79,5-3.55,7.51-5.31,2.67-1.87,5.32-3.78,8-5.71,1.13-.82,4.88-3.49,5.6-3.93,1-.64,2-1.4,3-2.11a1.84,1.84,0,0,0,.4-.33C277.8,122.07,278.12,121.92,278,121.64Z" fill="#fff"/></svg>