<svg id="Camada_1" data-name="Camada 1" xmlns="http://www.w3.org/2000/svg" viewBox="0 0 350 350"><title>reggae</title><path d="M288.62,162.62c-1-.15-2.1-.25-3.13-.45-3.29-.62-4.09-1.91-3.5-5.19.39-2.17,1.54-4.16,1.56-6.89-2.24,2-4.14,3.74-6.1,5.41-3.46,2.93-4,2.84-6-1.16-.67-1.31-1.09-.91-1.71,0a10.88,10.88,0,0,1-4.58,4c-3.53,1.46-6.7,0-7.92-3.58s.4-7.63,4.06-10c2.42-1.55,3.37-1.44,5.67.32,1.07.82,1.8,2.88,3.11,2.34s.55-2.59,1-3.91c.25-.69-.11-1.78.76-2,.66-.18,1.08.77,1.63,1.18s1.06,1.43,1.86,1.21c1-.27.72-1.38.88-2.17s.1-2,1.46-1.1c1.64,1,1.53-.13,1.58-1.17a11.66,11.66,0,0,0-2.41-7.3c-1.16-1.65-.76-4.45-3.32-5a17.88,17.88,0,0,0-6.29.32c-4.67.7-9.27,1.75-13.87,2.81-.77.18-1.76.5-1.29-.93s-.23-1.83-1.52-1.85a1.63,1.63,0,0,1-1.68-1.05,1.86,1.86,0,0,1,.8-2,15.37,15.37,0,0,1,4.92-2.82c.69-.26,1.53-.27,2-.94-.14-.56-.59-.59-1-.69a13.14,13.14,0,0,0-10.14,1.71c-.57.33-1.22,1.1-1.86.42a2.38,2.38,0,0,1-.17-2.6c.07-.18.27-.32.41-.48.49-.55,1.65-.77,1.37-1.65-.23-.72-1.25-.33-1.91-.41s-1.26-.42-1.24-1.17c0-1.71-.63-3.48.66-5.08a2.21,2.21,0,0,0-.26-3.24,2.29,2.29,0,0,0-3.1-.14c-1.21.92-1.22,2.1-.46,3.37.56.94.13,4.56-.73,4.82-1.55.48-1.56-1.37-2.39-2.05a11.22,11.22,0,0,1-1.3-1.66,2.07,2.07,0,0,1-.44-2.48,2.38,2.38,0,0,0-1.11-3.25,2.3,2.3,0,0,0-3.22.56,2.48,2.48,0,0,0,.08,3.46c.51.6,1,1.11.82,2-.31,1.52-.51,3.05-.76,4.58s-.89,1.5-1.9.54c-1.43-1.36-2.91-2.66-4.41-4a2.32,2.32,0,0,1-1-2.53,2.54,2.54,0,0,0-1.87-3.13,2.59,2.59,0,0,0-3.26,1.27,2.63,2.63,0,0,0,.8,3.72c.56.44,1.16.78,1.15,1.63,0,2.33,0,4.65-.08,7,0,.59-.26,1.44-.91.9-2-1.65-5.35-1.85-5.65-5.35a2.25,2.25,0,0,0-2.31-2.08,2.48,2.48,0,0,0-2.63,1.72,2.23,2.23,0,0,0,1,2.93c3.3,1.78,2.41,5.23,3.48,7.94-2.22-1.2-5.05-1.35-5.71-4.46-.24-1.12-1.44-1.47-2.61-1.23a2.22,2.22,0,0,0-1.88,2c-.15,1.18.37,2.37,1.46,2.51,2.77.34,4.09,2.51,5.91,4.08,1.17,1,1.32,1.66-.07,2.71a26.88,26.88,0,0,0-7.6,9,6.87,6.87,0,0,0-1.25,3.65c2.26-1.28,4.21-2.49,6.24-3.52a18.81,18.81,0,0,1,6.65-2.27c-8.65,6.13-13,11.18-13.44,15.72,4.55-2.83,9-5.72,14.55-5.4a39.27,39.27,0,0,0-8.86,5.95,26.7,26.7,0,0,0-6.34,8.43,58.51,58.51,0,0,0,5.84-2.46c3.44-1.55,4.36-1.78,6-1.68-8.14,6.45-12.3,11.29-12.42,14.44.14,0,.3,0,.41-.06.46-.32.9-.67,1.36-1,3.66-2.59,7.47-4.84,12.13-5,.73,0,1.74-.39,2.1.47s-.51,1.38-1,2c-3.21,4-7.65,5.3-12.55,5.42-1.81,0-3.7.25-5.22-1.14q-6.56-6-13.12-12c-.51-.47-1.15-1-.69-1.79,1.16-2.11,1.72-4.46,4.06-6a11.41,11.41,0,0,0,5.41-11.21A21.31,21.31,0,0,0,186,131.56c-2-2.17-4.23-4.14-6.26-6.29a15.07,15.07,0,0,1-4.18-8.82c-.09-.78.32-1.95-.75-2.16-.89-.18-1.41.8-1.88,1.49a8,8,0,0,0-1.37,4.16,14,14,0,0,0,.83,5.4,7.65,7.65,0,0,1-1,7.23c-.6.87-1.15,1.77-1.7,2.67-2.78,4.54-3.26,9.22-.84,14.08.15.29.59.65.06,1.12-.45-.34-.91-.65-1.33-1Q145,129.49,122.47,109.53c-.94-.83-2.45-1.52-.92-3.13.34-.35,0-.82-.27-1.13a1.17,1.17,0,0,1,0-1.84c.65-.73.18-1.29-.38-1.8s-1.1-1-1.84-.33c-1.5,1.3-3.34-1-4.86.42a5.5,5.5,0,0,1-1-.73q-1.05-.88-2.08-1.79c-.74-.65-1.32-.47-2,.18-1.12,1.07-1.39,1.86,0,3,1.1.93,3,1.5,2.11,4-.25.64.74,2.24.3,3.63-.15.45,1.07,1.46,1.45,1.23,1.4-.83,2.83.2,4-.23a1.82,1.82,0,0,1,2.19.5l9.11,8.21q20.89,18.81,41.77,37.64c.53.48,1.34.8,1.36,1.89a16.21,16.21,0,0,1-10.14-3.09c-5.74-4.33-11.35-8.82-17.31-12.86-8.49-5.76-17.18-11-27.73-12.24-13.2-1.53-23.6,8.71-22.54,19.71a25.23,25.23,0,0,0,3.61,10.72,45.09,45.09,0,0,0,13.79,14.09c1.43,1,1.8,1.8,1,3.44a55.58,55.58,0,0,0-4.32,13.88,10.85,10.85,0,0,0,.52,6.43,6.19,6.19,0,0,0,8.75,3.26c2.66-1.28,4.33-3.51,5.78-6,3-5.1,5.5-10.5,9.09-15.23,2.71-3.57,6-6.38,10.59-7.18a31.4,31.4,0,0,1,17.59,2.11c6.32,2.6,12.51,5.51,18.84,8.07,7,2.83,14.22,4.61,21.85,2.71a1.76,1.76,0,0,1,2.07.62c.64.89-.1,1.44-.53,2-3.66,5.16-3.85,10.57-1.19,16.18,2,4.27,5.12,7.73,8.37,11.08.49.5,1.35.81,1.19,1.92a10.87,10.87,0,0,1-7.94-2.84c-3.29-2.85-4.87-6.66-6-10.72a63.48,63.48,0,0,1-1.73-11.69c-.13-1.54-.66-1.73-1.79-.79a12.22,12.22,0,0,0-3.31,4.58,44.6,44.6,0,0,0-1.72,6.08c-5.55-8-13.79-14.14-19.42-14.33,2.78,3.4,6,6.29,7.36,10.7a2.75,2.75,0,0,1-1.81-.88c-1.62-1.25-3.31-2.42-4.81-3.79-7-6.37-15.25-7.26-24.13-5.85-6.59,1-11.88,3.93-15.68,9.63a30.79,30.79,0,0,1-11.92,10.82c-5.8,2.88-11.27,6.38-17.2,9a27.88,27.88,0,0,0-6.08,3.8,13.93,13.93,0,0,0-4.18,4.7c-.34.72-1,1.65-.27,2.3.56.46,1.22-.44,1.82-.75.31-.16.59-.39.89-.57s.65-.43,1-.16.08.78-.13,1.12a13.1,13.1,0,0,1-3.2,3.34,11.8,11.8,0,0,0-4.36,7.49,57.87,57.87,0,0,0-.89,8.18c-.09,2,.66,2.54,2.55,2.52,8.81-.07,17.62,0,26.43,0,4.68,0,4.91-.31,3.54-5-1.19-4.05-4.05-6.81-7.52-7.09-2.45-.2-4.92-.3-7.38-.38-3.31-.11-3.89-.68-3.24-3.9,1.06-5.28,4.69-8.68,8.84-11.65a2.29,2.29,0,0,1,1.21-.3c7.53-.21,14.08-3.13,20.17-7.32,3.6-2.47,6.65-5.92,11.39-6.38.45,0,.89-.69,1.33-.32s.22,1.05.09,1.59a14.62,14.62,0,0,1-5,7.88c-1.49,1.29-3,2.61-4.34,4a23.09,23.09,0,0,0-5.72,11.37c-.09.39-.34.88,0,1.2s.89-.1,1.28-.34a15,15,0,0,1,3-1.83c.53.74.13,1.35.1,2-.24,5.05-.47,10.09,3.84,13.9a2.1,2.1,0,0,1,.64,1.29c.11,1.45,1,1.66,2.18,1.65,3,0,6.06,0,9.09,0,6,0,12,0,18,0,.94,0,2.15.25,2-1.4-.85-7-6.2-13.67-14.47-11.25a15.55,15.55,0,0,1-5.42.71A2.74,2.74,0,0,1,145,237a5.07,5.07,0,0,1,4.51-6.5,22.19,22.19,0,0,0,8.08-2.3,25.85,25.85,0,0,0,10.27-10.66c.73-1.31,1.2-1.56,2.38-.38a23.71,23.71,0,0,0,11.85,6.59c1,.21,2.35,1,2.9,0,.46-.83-1-1.5-1.63-2.2a16.35,16.35,0,0,1-4.05-6.58,10.1,10.1,0,0,1,1.15.52,76.2,76.2,0,0,0,18.29,9.13c1.92.66,2,1.41.95,3a71.29,71.29,0,0,1-7.15,8.6c-.36.38-1,.74-.7,1.39s1,.46,1.51.49a15,15,0,0,0,4.44-.42c-.66,1-1.06,1.66-1.47,2.28a17,17,0,0,0-2.64,7.94c-.14,1.49.27,2.43,2,2.42q14.69-.06,29.39,0a2.14,2.14,0,0,0,2.37-2.13c.75-5-4.66-12.33-9.93-11.22a32.9,32.9,0,0,1-5,.46c-.64,0-1.54.44-1.86-.45-.26-.7.26-1.34.69-1.91a40.14,40.14,0,0,1,6-6.19c3.43-2.94,4.67-2.92,7.75.38a24.74,24.74,0,0,1,2.56,3.36,48.23,48.23,0,0,1,4.6,9.72c.81,2.16,1.21,2.24,2.81.67a7.2,7.2,0,0,0,.71-.78c.82-1.09,1.35-1,1.85.3a17.82,17.82,0,0,0,4.72,6.92,4.65,4.65,0,0,0,3.21,1.35c8.25,0,16.49,0,24.74,0,1.66,0,1.92-.75,1.62-2.1a23.69,23.69,0,0,0-2.48-6.49c-2.22-3.94-5.1-6.76-10.1-6.08-1.42.19-2.37-.57-3.3-1.51q-7.63-7.76-15.34-15.46a5,5,0,0,1-1.5-2.92c-.72-4.6.34-9,1.57-13.33,1.84-6.47.5-12-3.91-17.07-4.92-5.64-7.26-6.22-14-2.92a79,79,0,0,0-9.32,5.8c-.41.28-.85,1-1.42.47s-.05-1.06.18-1.57a10.75,10.75,0,0,1,2.39-2.93c.41-.41,1.34-.72.91-1.43s-1.17-.18-1.78-.07A16.61,16.61,0,0,0,209,184.9c-.54.29-1.12.86-1.92.29.22-.24.32-.44.48-.53,5.9-3.08,12-5.68,18.66-6.47,4-.47,7.8.12,10.8,3.09a24,24,0,0,1,5.51,8.19c3.21,8.06,2.48,16-.8,23.84-.3.72-.94,1.4-.56,2.53a17.33,17.33,0,0,0,6.18-4.44c3.94-4.52,5.26-10,6-15.76.09-.7-.42-1.76.59-2,.78-.19,1.38.59,1.9,1.16a6,6,0,0,1,1.5,3.65c.09,1.05,0,2.11.09,3.17,0,.46-.22,1.1.42,1.27s.86-.4,1.15-.78a11.07,11.07,0,0,0,2.37-6.23,32.29,32.29,0,0,0-.72-9.24c-.29-1.21-1.46-3.1-.34-3.58,1.39-.6,2.7,1.1,3.7,2.27,2,2.41,3.11,5.33,4.13,8.27.17.5.1,1.34.79,1.35s.78-.86,1-1.42a18.54,18.54,0,0,0,.06-10.63,35.12,35.12,0,0,0-6.24-12.14c-.77-1-.73-1.49.59-1.81a36,36,0,0,0,4.44-1.35c1.4-.53,2.21-.44,2.5,1.28a4.47,4.47,0,0,0,4,3.77,10.92,10.92,0,0,0,8.35-2.17c.88-.61,2.38-1.21,2.05-2.35-.26-.91-1.76-.21-2.7-.36-.28,0-.57,0-.84,0-.87-.11-2.19,0-2.13-1.09,0-.86,1.31-.43,2-.45,2.49-.07,4.93-.3,7-1.82.4-.29.85-.65.75-1.19S289.08,162.69,288.62,162.62ZM188.7,175.69a78.29,78.29,0,0,1-14.35-4.05c-7.22-2.58-14.32-5.52-21.89-7a45.06,45.06,0,0,0-26.5,2.48,8,8,0,0,1-4.91.59c-8.67-1.82-15.24-6.17-17.88-15.07-2-6.87,1.51-13.51,7.95-14.93a19.32,19.32,0,0,1,10,.7c8.4,2.62,15.57,7.46,22.7,12.42,5.37,3.74,10.18,8.2,15.92,11.47,5.43,3.09,10.88,5,17.09,2.95a1.64,1.64,0,0,1,1.78.23L189,175.23ZM220,133.78A56,56,0,0,0,239.08,126C233.87,131.42,227.21,133.3,220,133.78Z" fill="#fff"/><path d="M94.78,136.76a30.22,30.22,0,0,1,15.58-7c8.35-1,16.26.64,24,3.44,3.27,1.18,6.44,2.62,9.66,3.94a4.31,4.31,0,0,0-1.2-1.75c-6.44-6-13-11.85-19.27-18a19,19,0,0,0-12.6-5.68c-8.17-.69-14.62,1.25-19.33,8.36-2.43,3.67-5.87,6.14-10.74,6.07a11.78,11.78,0,0,0-7.58,2.85c-6.1,4.93-9.42,11.78-13.17,18.6a2.62,2.62,0,0,0,2.33-.66c2.62-1.52,5.14-3.22,7.85-4.57,4.33-2.15,8.65-4.7,13.83-3.3A11.06,11.06,0,0,0,94.78,136.76Z" fill="#fff"/></svg>